<svg width="35" height="43" viewBox="0 0 35 43" fill="none" xmlns="http://www.w3.org/2000/svg">
<path fill-rule="evenodd" clip-rule="evenodd" d="M26.1815 1.5284C26.2954 0.544979 25.3572 -0.226804 24.4101 0.0609657C22.7079 0.577823 20.9764 1.67159 19.8264 3.01727C18.7253 4.29024 17.7323 6.16527 17.5211 8.11562C17.4213 9.03802 18.2604 9.77709 19.1705 9.5961C21.0261 9.22739 22.7751 8.0568 23.9438 6.64132C25.0961 5.24645 25.9608 3.43394 26.1815 1.5284ZM34.1845 30.9392C34.7656 31.2784 35.0148 31.9861 34.7755 32.6151C34.3321 33.7815 33.505 35.6635 32.1907 37.5845C30.3899 40.2164 28.5209 42.8389 25.5765 42.8931C22.6836 42.9465 21.7534 41.1776 18.4457 41.1776C15.1392 41.1776 14.1056 42.8389 11.367 42.9465C8.52505 43.054 6.36087 40.1003 4.54506 37.4778C0.834709 32.1137 -2.00079 22.3198 1.80658 15.7089C3.69797 12.4258 7.07809 10.3468 10.7468 10.2935C13.5376 10.2403 16.1717 12.171 17.8778 12.171C19.5827 12.171 22.7838 9.84922 26.1488 10.1902C27.3885 10.2418 30.599 10.6433 33.082 13.271C33.6235 13.8439 33.5643 14.7593 32.9577 15.2625C31.5643 16.4182 29.3474 18.8573 29.3819 22.6971C29.4268 27.5293 32.5381 29.9786 34.1845 30.9392Z" fill="#3666F5"/>
</svg>
