<svg width="36" height="44" viewBox="0 0 36 44" fill="none" xmlns="http://www.w3.org/2000/svg">
<path fill-rule="evenodd" clip-rule="evenodd" d="M26.8028 1.87059C26.9167 0.887173 25.9785 0.115391 25.0314 0.40316C23.3292 0.920017 21.5977 2.01379 20.4477 3.35946C19.3466 4.63243 18.3536 6.50747 18.1424 8.45781C18.0426 9.38021 18.8817 10.1193 19.7918 9.9383C21.6474 9.56958 23.3964 8.39899 24.5651 6.98351C25.7174 5.58864 26.5821 3.77613 26.8028 1.87059ZM34.8058 31.2814C35.3869 31.6206 35.6361 32.3283 35.3968 32.9573C34.9533 34.1237 34.1263 36.0057 32.812 37.9266C31.0112 40.5586 29.1422 43.1811 26.1978 43.2353C23.3049 43.2887 22.3746 41.5198 19.0669 41.5198C15.7605 41.5198 14.7269 43.1811 11.9883 43.2887C9.14633 43.3962 6.98215 40.4425 5.16635 37.82C1.456 32.4559 -1.37951 22.662 2.42787 16.0511C4.31926 12.768 7.69938 10.689 11.3681 10.6357C14.1589 10.5825 16.793 12.5132 18.4991 12.5132C20.204 12.5132 23.4051 10.1914 26.7701 10.5324C28.0098 10.584 31.2203 10.9855 33.7033 13.6132C34.2448 14.1861 34.1855 15.1015 33.579 15.6047C32.1856 16.7604 29.9686 19.1995 30.0031 23.0393C30.0481 27.8715 33.1594 30.3208 34.8058 31.2814Z" fill="#FEFEFE"/>
</svg>
