<svg id="visual" viewBox="0 0 900 900" width="900" height="900" xmlns="http://www.w3.org/2000/svg" xmlns:xlink="http://www.w3.org/1999/xlink" version="1.1"><rect x="0" y="0" width="900" height="900" fill="#F7ECE4"></rect><defs><linearGradient id="grad1_0" x1="0%" y1="100%" x2="100%" y2="0%"><stop offset="30%" stop-color="#3666f5" stop-opacity="1"></stop><stop offset="70%" stop-color="#3666f5" stop-opacity="1"></stop></linearGradient></defs><defs><linearGradient id="grad1_1" x1="0%" y1="100%" x2="100%" y2="0%"><stop offset="30%" stop-color="#3666f5" stop-opacity="1"></stop><stop offset="70%" stop-color="#e272c1" stop-opacity="1"></stop></linearGradient></defs><defs><linearGradient id="grad1_2" x1="0%" y1="100%" x2="100%" y2="0%"><stop offset="30%" stop-color="#feaeae" stop-opacity="1"></stop><stop offset="70%" stop-color="#e272c1" stop-opacity="1"></stop></linearGradient></defs><defs><linearGradient id="grad1_3" x1="0%" y1="100%" x2="100%" y2="0%"><stop offset="30%" stop-color="#feaeae" stop-opacity="1"></stop><stop offset="70%" stop-color="#f7ece4" stop-opacity="1"></stop></linearGradient></defs><defs><linearGradient id="grad2_0" x1="0%" y1="100%" x2="100%" y2="0%"><stop offset="30%" stop-color="#3666f5" stop-opacity="1"></stop><stop offset="70%" stop-color="#3666f5" stop-opacity="1"></stop></linearGradient></defs><defs><linearGradient id="grad2_1" x1="0%" y1="100%" x2="100%" y2="0%"><stop offset="30%" stop-color="#e272c1" stop-opacity="1"></stop><stop offset="70%" stop-color="#3666f5" stop-opacity="1"></stop></linearGradient></defs><defs><linearGradient id="grad2_2" x1="0%" y1="100%" x2="100%" y2="0%"><stop offset="30%" stop-color="#e272c1" stop-opacity="1"></stop><stop offset="70%" stop-color="#feaeae" stop-opacity="1"></stop></linearGradient></defs><defs><linearGradient id="grad2_3" x1="0%" y1="100%" x2="100%" y2="0%"><stop offset="30%" stop-color="#f7ece4" stop-opacity="1"></stop><stop offset="70%" stop-color="#feaeae" stop-opacity="1"></stop></linearGradient></defs><g transform="translate(900, 900)"><path d="M-381.8 0C-370 -27.1 -358.3 -54.2 -346.1 -79C-333.9 -103.8 -321.4 -126.4 -309.9 -149.3C-298.4 -172.1 -287.9 -195.2 -277.6 -221.3C-267.2 -247.4 -256.9 -276.5 -238.1 -298.5C-219.2 -320.5 -191.7 -335.4 -163.1 -338.8C-134.5 -342.1 -104.8 -334 -77.4 -339.3C-50.1 -344.5 -25 -363.2 0 -381.8L0 0Z" fill="#fbcfc0"></path><path d="M-286.4 0C-277.5 -20.3 -268.7 -40.6 -259.6 -59.2C-250.5 -77.9 -241.1 -94.8 -232.4 -111.9C-223.8 -129.1 -215.9 -146.4 -208.2 -166C-200.4 -185.6 -192.7 -207.4 -178.6 -223.9C-164.4 -240.4 -143.8 -251.5 -122.4 -254.1C-100.9 -256.6 -78.6 -250.5 -58.1 -254.5C-37.5 -258.4 -18.8 -272.4 0 -286.4L0 0Z" fill="#f98db0"></path><path d="M-190.9 0C-185 -13.5 -179.1 -27.1 -173 -39.5C-167 -51.9 -160.7 -63.2 -155 -74.6C-149.2 -86.1 -144 -97.6 -138.8 -110.7C-133.6 -123.7 -128.5 -138.3 -119 -149.3C-109.6 -160.3 -95.9 -167.7 -81.6 -169.4C-67.3 -171.1 -52.4 -167 -38.7 -169.6C-25 -172.3 -12.5 -181.6 0 -190.9L0 0Z" fill="#b165db"></path><path d="M-95.5 0C-92.5 -6.8 -89.6 -13.5 -86.5 -19.7C-83.5 -26 -80.4 -31.6 -77.5 -37.3C-74.6 -43 -72 -48.8 -69.4 -55.3C-66.8 -61.9 -64.2 -69.1 -59.5 -74.6C-54.8 -80.1 -47.9 -83.8 -40.8 -84.7C-33.6 -85.5 -26.2 -83.5 -19.4 -84.8C-12.5 -86.1 -6.3 -90.8 0 -95.5L0 0Z" fill="#3666f5"></path></g><g transform="translate(0, 0)"><path d="M381.8 0C376.1 28.6 370.5 57.2 358.8 81.9C347.1 106.6 329.4 127.4 320.7 154.5C312.1 181.6 312.3 215 298.5 238.1C284.7 261.1 256.8 273.8 233.2 292.4C209.5 311 190.1 335.4 164 340.6C137.9 345.8 105 331.7 76.5 335.4C48.1 339 24 360.4 0 381.8L0 0Z" fill="#fbcfc0"></path><path d="M286.4 0C282.1 21.4 277.8 42.9 269.1 61.4C260.3 79.9 247.1 95.5 240.6 115.8C234 136.2 234.3 161.3 223.9 178.6C213.5 195.9 192.6 205.4 174.9 219.3C157.2 233.2 142.6 251.5 123 255.4C103.4 259.3 78.8 248.8 57.4 251.5C36.1 254.3 18 270.3 0 286.4L0 0Z" fill="#f98db0"></path><path d="M190.9 0C188.1 14.3 185.2 28.6 179.4 40.9C173.5 53.3 164.7 63.7 160.4 77.2C156 90.8 156.2 107.5 149.3 119C142.4 130.6 128.4 136.9 116.6 146.2C104.8 155.5 95.1 167.7 82 170.3C68.9 172.9 52.5 165.9 38.3 167.7C24 169.5 12 180.2 0 190.9L0 0Z" fill="#b165db"></path><path d="M95.5 0C94 7.1 92.6 14.3 89.7 20.5C86.8 26.6 82.4 31.8 80.2 38.6C78 45.4 78.1 53.8 74.6 59.5C71.2 65.3 64.2 68.5 58.3 73.1C52.4 77.7 47.5 83.8 41 85.1C34.5 86.4 26.3 82.9 19.1 83.8C12 84.8 6 90.1 0 95.5L0 0Z" fill="#3666f5"></path></g></svg>