<svg width="514" height="523" viewBox="0 0 514 523" fill="none" xmlns="http://www.w3.org/2000/svg">
<g clip-path="url(#clip0_3520_4496)">
<path d="M337.295 92.958C369.224 121.856 402.512 141.422 422.484 173.43C442.457 205.439 449.183 249.973 452.511 296.718C455.84 343.544 455.772 392.662 428.463 409.281C401.085 425.899 346.398 410.018 311.072 424.18C275.814 438.424 259.85 482.631 234.103 503.261C208.287 523.89 172.622 520.78 150.339 497.53C128.125 474.281 119.226 430.811 108.9 393.563C98.5056 356.397 86.6851 325.37 75.6118 286.73C64.5385 248.009 54.2125 201.674 66.7124 168.928C79.2123 136.182 114.538 117.108 147.894 89.1104C181.25 61.1948 212.567 24.2741 243.613 25.0109C274.659 25.7476 305.298 63.9781 337.295 92.958Z" fill="#B6C9FF"/>
<mask id="mask0_3520_4496" style="mask-type:alpha" maskUnits="userSpaceOnUse" x="61" y="25" width="393" height="493">
<path d="M337.295 92.958C369.224 121.856 402.512 141.422 422.484 173.43C442.457 205.439 449.183 249.973 452.511 296.718C455.84 343.544 455.772 392.662 428.463 409.281C401.085 425.899 346.398 410.018 311.072 424.18C275.814 438.424 259.85 482.631 234.103 503.261C208.287 523.89 172.622 520.78 150.339 497.53C128.125 474.281 119.226 430.811 108.9 393.563C98.5056 356.397 86.6851 325.37 75.6118 286.73C64.5385 248.009 54.2125 201.674 66.7124 168.928C79.2123 136.182 114.538 117.108 147.894 89.1104C181.25 61.1948 212.567 24.2741 243.613 25.0109C274.659 25.7476 305.298 63.9781 337.295 92.958Z" fill="#B6C9FF"/>
</mask>
<g mask="url(#mask0_3520_4496)">
<rect x="107" y="360" width="302" height="28" fill="url(#paint0_radial_3520_4496)"/>
<path fill-rule="evenodd" clip-rule="evenodd" d="M235.144 115.489C235.578 115.788 249.523 122.113 266.133 129.544C295.786 142.812 311.607 149.901 321.933 154.545C324.793 155.832 337.647 161.589 350.498 167.339C363.349 173.089 374.398 178.07 375.051 178.408C378.345 180.112 401.343 196.311 401.327 196.917C401.289 198.336 401.208 198.342 376.848 198.547L353.133 198.747L353.024 206.696C352.911 215.016 353.013 215.588 354.662 215.823C355.454 215.936 355.544 216.215 355.652 218.911L355.771 221.876L352.741 226.425C351.026 229 349.282 231.17 348.722 231.425C347.364 232.044 347.429 233.476 348.862 234.496C353.809 238.019 349.936 245.456 344.93 242.047C343.192 240.864 342.602 239.918 343.218 239.302C343.574 238.946 343.983 239.086 344.94 239.891C348.664 243.025 351.045 239.347 347.533 235.884C346.374 234.742 345.733 233.761 345.733 233.132C345.733 232.402 345.363 231.974 344.28 231.45C339.208 228.996 334.298 215.747 338.461 215.747C340.439 215.747 340.533 215.365 340.533 207.3C340.533 203.182 340.424 199.528 340.29 199.18C340.071 198.608 335.805 198.547 296.098 198.547H252.148L251.903 197.57C251.453 195.778 251.638 195.747 262.933 195.747C269.01 195.747 273.784 195.588 273.912 195.381C274.163 194.975 258.942 182.144 258.217 182.149C258.061 182.15 256.697 183.138 255.186 184.344C253.676 185.55 252.281 186.438 252.086 186.318C251.392 185.889 251.731 183.78 252.633 182.924L253.533 182.069L252.633 181.459C252.138 181.124 251.733 180.442 251.733 179.945C251.733 179.914 251.732 179.883 251.732 179.854C251.73 179.754 251.728 179.662 251.751 179.577C252.033 178.557 256.001 178.557 307.683 178.552L311.633 178.552C343.588 178.549 369.733 178.411 369.733 178.245C369.733 178.079 363.118 174.982 355.033 171.364C346.948 167.745 333.853 161.877 325.933 158.324C318.013 154.77 299.563 146.503 284.933 139.953C270.303 133.402 253.383 125.825 247.334 123.114C241.285 120.403 236.205 118.315 236.046 118.474C235.744 118.776 238.664 138.588 239.119 139.325C239.275 139.577 241.042 139.747 243.508 139.747C250.652 139.747 250.914 142.261 243.79 142.461L239.733 142.575L239.746 143.661C239.769 145.606 242.433 161.807 242.788 162.16C242.978 162.349 244.194 162.558 245.492 162.625C249.721 162.844 249.505 165.347 245.257 165.347C243.023 165.347 242.947 165.616 243.782 170.514C244.318 173.657 244.54 173.984 246.371 174.328C248.021 174.637 250.933 177.105 250.933 178.194C250.933 178.894 250.555 178.947 245.502 178.947H240.071L238.902 180.116C237.814 181.204 237.733 181.498 237.733 184.336C237.733 189.894 238.665 190.547 246.593 190.547H251.733V192.547V194.547H245.902H240.071L238.863 195.756C237.671 196.947 237.656 197.015 237.794 200.545C237.999 205.82 238.125 205.911 245.543 206.077C250.224 206.181 251.333 206.315 251.333 206.775C251.333 207.622 248.696 210.382 247.357 210.937C245.667 211.637 245.47 225.078 245.453 255.081V293.388V293.391V331.695V331.698V370.002V370.005V408.312H242.128C242.134 407.738 226.687 392.824 225.901 392.646C225.418 392.536 225.333 408.346 225.333 408.346L222.521 408.312V370.005V331.698V293.391V255.084V210.086L221.285 208.547C219.595 206.444 219.952 206.147 224.176 206.147C229.717 206.147 230.933 205.09 230.933 200.274C230.933 195.466 229.774 194.547 223.707 194.547H219.733V192.547V190.547H223.546C230.001 190.547 231.243 189.372 230.833 183.652C230.544 179.606 230.031 179.202 224.856 178.947C222.346 178.823 221.055 178.674 220.746 178.23C220.458 177.816 221.024 177.146 222.251 176.003C224.043 174.334 224.06 174.292 224.673 170.162L224.686 170.074C225.124 167.127 225.289 166.017 224.828 165.599C224.549 165.347 224.042 165.347 223.228 165.347H223.186C219.199 165.347 218.891 162.816 222.854 162.627C223.001 162.62 223.141 162.615 223.273 162.609C224.029 162.58 224.564 162.558 224.974 162.322C225.967 161.748 226.23 159.911 227.13 153.625L227.133 153.608C227.197 153.156 227.265 152.681 227.337 152.182C227.434 151.509 227.525 150.883 227.61 150.3C228.337 145.317 228.599 143.519 227.859 142.88C227.442 142.519 226.704 142.527 225.551 142.541C225.312 142.544 225.054 142.547 224.778 142.547C220.914 142.547 220.133 142.346 220.133 141.353C220.133 140.103 221.093 139.78 225.155 139.662L229.133 139.547L230.404 131.147C231.663 122.827 231.957 119.747 231.493 119.747C231.122 119.747 164.483 166.945 163.221 168.101C162.113 169.116 162.11 169.138 162.221 173.733L162.333 178.347L190.933 178.556C206.663 178.671 219.578 178.806 219.633 178.856C221.071 180.16 219.562 181.917 210.819 189.119C206.906 192.342 203.812 195.151 203.943 195.363C204.081 195.586 207.333 195.747 211.73 195.747C219.769 195.747 220.887 196.074 219.317 197.966C218.778 198.616 128.445 198.86 127.428 198.214C127.033 197.963 126.946 194.554 127.028 182.52L127.133 167.147L144.533 166.947L161.933 166.747L196.533 142.218C215.563 128.728 231.659 117.073 232.303 116.318C233.595 114.804 233.982 114.691 235.144 115.489ZM232.133 138.944C232.133 138.029 233.217 130.436 233.554 128.989C233.959 127.251 234.465 128.66 235.31 133.879L235.324 133.966C235.925 137.681 236.14 139.009 235.602 139.483C235.303 139.747 234.771 139.747 233.944 139.747H233.909C232.398 139.747 232.133 139.627 232.133 138.944ZM229.055 161.889C228.821 161.278 231.193 143.515 231.598 142.847C231.759 142.583 236.493 142.392 236.559 142.647C237.317 145.619 239.531 161.675 239.234 162.047C238.568 162.882 229.382 162.739 229.055 161.889ZM227.426 173.647C227.021 173.147 227.756 166.68 228.322 165.765C228.82 164.959 240.045 165.223 240.27 166.047C241.044 168.879 241.41 173.453 240.888 173.783C239.978 174.36 227.904 174.238 227.426 173.647ZM162.733 192.808C162.141 192.621 161.991 182.6 162.57 181.903C163.123 181.236 175.521 181.081 175.926 181.735C176.205 182.188 163.328 192.996 162.733 192.808ZM186.209 182.708C185.88 182.466 185.74 182.059 185.899 181.803C186.34 181.089 214.333 181.349 214.333 182.066C214.333 182.834 200.851 193.788 200.066 193.658C199.699 193.597 196.566 191.207 193.103 188.347C189.64 185.487 186.538 182.949 186.209 182.708ZM272.259 189.88C263.881 183.024 262.835 182.056 263.408 181.689C264.172 181.201 291.713 181.451 291.818 181.947C291.926 182.453 278.239 193.747 277.518 193.747C277.225 193.747 274.858 192.007 272.259 189.88ZM303.18 183.484C302.317 182.776 301.76 182.027 301.913 181.779C302.323 181.115 330.333 181.367 330.333 182.034C330.333 182.682 316.905 193.75 316.135 193.737C315.804 193.732 313.1 191.707 310.127 189.237C307.153 186.768 304.027 184.179 303.18 183.484ZM354.84 193.747C354.538 193.747 351.42 191.394 347.911 188.517L347.67 188.319C341.318 183.111 340.493 182.434 340.604 181.994C340.621 181.928 340.658 181.867 340.701 181.798L340.712 181.78C341.098 181.157 369.133 181.361 369.133 181.987C369.133 182.57 355.549 193.747 354.84 193.747ZM358.604 195.148C358.675 194.819 362.24 191.669 366.526 188.148C370.812 184.628 374.521 181.747 374.768 181.747C375.566 181.747 394.559 194.982 394.318 195.371C393.882 196.077 358.451 195.856 358.604 195.148ZM165.154 195.381C165.03 195.18 168.455 192.12 172.765 188.581C177.076 185.042 180.743 182.147 180.914 182.147C181.488 182.147 196.332 194.573 196.462 195.163C196.614 195.847 165.576 196.063 165.154 195.381ZM281.154 195.381C280.959 195.065 285.233 191.36 294.249 184.03C295.522 182.994 296.704 182.147 296.874 182.147C297.43 182.147 312.329 194.612 312.462 195.188C312.616 195.85 281.562 196.042 281.154 195.381ZM320.02 195.394C319.657 195.031 322.401 192.569 330.933 185.598C333.243 183.711 335.313 182.169 335.533 182.172C336.106 182.178 351.133 194.686 351.133 195.156C351.133 195.665 320.525 195.899 320.02 195.394ZM342.613 215.267C342.086 214.74 341.898 199.315 342.412 198.801C342.566 198.647 344.591 198.572 346.912 198.634L351.133 198.747L351.242 206.696C351.317 212.221 351.211 214.812 350.893 215.196C350.295 215.916 343.322 215.976 342.613 215.267ZM225.854 232.547C225.108 232.547 225.088 211.917 225.833 211.603C226.108 211.486 226.693 211.469 227.133 211.564C227.573 211.659 230.061 211.739 232.663 211.742L237.392 211.747L239.763 214.008C241.066 215.251 242.133 216.496 242.133 216.774C242.133 217.433 226.534 232.547 225.854 232.547ZM227.315 236.012C227.306 235.756 230.681 232.267 234.815 228.257C238.95 224.248 242.468 220.963 242.633 220.957C242.798 220.952 242.933 227.697 242.933 235.947C242.933 244.197 242.786 250.947 242.607 250.947C242.094 250.947 227.335 236.532 227.315 236.012ZM227.315 274.319C227.306 274.063 230.681 270.574 234.815 266.564C238.95 262.555 242.468 259.27 242.633 259.264C242.798 259.259 242.933 266.004 242.933 274.254C242.933 282.504 242.786 289.254 242.607 289.254C242.094 289.254 227.335 274.839 227.315 274.319ZM227.315 312.626C227.306 312.37 230.681 308.881 234.815 304.871C238.95 300.862 242.468 297.577 242.633 297.571C242.798 297.566 242.933 304.311 242.933 312.561C242.933 320.811 242.786 327.561 242.607 327.561C242.094 327.561 227.335 313.146 227.315 312.626ZM227.315 350.933C227.306 350.677 230.681 347.188 234.815 343.178C238.95 339.169 242.468 335.884 242.633 335.878C242.798 335.873 242.933 342.618 242.933 350.868C242.933 359.118 242.786 365.868 242.607 365.868C242.094 365.868 227.335 351.453 227.315 350.933ZM227.315 389.24C227.306 388.984 230.681 385.495 234.815 381.485C238.95 377.476 242.468 374.191 242.633 374.185C242.798 374.18 242.933 380.925 242.933 389.175C242.933 397.425 242.786 404.175 242.607 404.175C242.094 404.175 227.335 389.76 227.315 389.24ZM225.529 238.346L242.029 255.084L225.529 271.346V238.346ZM242.029 293.584L225.529 276.846V309.846L242.029 293.584ZM225.529 353.266L242.029 370.005L225.529 386.266V353.266ZM242.029 332.084L225.529 315.346V348.346L242.029 332.084Z" fill="url(#paint1_linear_3520_4496)"/>
</g>
</g>
<defs>
<radialGradient id="paint0_radial_3520_4496" cx="0" cy="0" r="1" gradientUnits="userSpaceOnUse" gradientTransform="translate(258 374) rotate(90) scale(14 151)">
<stop offset="0.161458" stop-color="#FEFEFE" stop-opacity="0.31"/>
<stop offset="1" stop-color="#FEFEFE" stop-opacity="0.0194805"/>
</radialGradient>
<linearGradient id="paint1_linear_3520_4496" x1="264.164" y1="115" x2="264.164" y2="408.346" gradientUnits="userSpaceOnUse">
<stop stop-color="#FEFEFE"/>
<stop offset="0.395833" stop-color="#FEFEFE"/>
<stop offset="0.802083" stop-color="#FEFEFE" stop-opacity="0"/>
</linearGradient>
<clipPath id="clip0_3520_4496">
<rect width="514" height="523" fill="white"/>
</clipPath>
</defs>
</svg>
