<svg width="19" height="22" viewBox="0 0 19 22" fill="none" xmlns="http://www.w3.org/2000/svg">
<g clip-path="url(#clip0_4018_3492)">
<path d="M17.673 20.3783L18.5 21.0931V20V2.957C18.5 1.58895 17.3737 0.5 16.0082 0.5H16.0072H2.99183C1.6263 0.5 0.5 1.58895 0.5 2.957V15.801C0.5 17.1691 1.6263 18.258 2.99183 18.258H14.0078H14.6756L14.4876 17.6173L14.473 17.5673L15.5764 18.5657L15.5763 18.5658L15.5849 18.5733L17.673 20.3783Z" stroke="black"/>
<path d="M13.6289 11.3537C13.629 11.3535 13.6291 11.3533 13.2008 11.0953L13.6291 11.3533L12.9242 10.6788C12.569 10.9148 12.2354 11.0789 11.9413 11.1898L11.9303 11.1939L11.9196 11.1985C11.5179 11.3719 11.097 11.498 10.6655 11.5743L10.6655 11.5743L10.6609 11.5751C9.91651 11.7139 9.15223 11.7111 8.40893 11.5668C7.9088 11.4689 7.47755 11.3268 7.11244 11.1829C6.91266 11.1032 6.70405 11.0104 6.4991 10.8951C6.48361 10.8855 6.46965 10.8776 6.4581 10.8714C6.45151 10.8678 6.445 10.8644 6.43936 10.8615L6.42261 10.8449L6.36374 10.8118C6.28853 10.7695 6.23143 10.7342 6.19459 10.7104C6.17619 10.6986 6.1629 10.6896 6.15498 10.6842L6.1472 10.6789L6.1468 10.6786L6.14719 10.6789L6.14744 10.6791L6.14757 10.6792L6.14765 10.6792L6.14739 10.6796L5.42575 11.3401L5.85592 11.0853C5.42575 11.3401 5.42587 11.3403 5.42599 11.3405L5.42624 11.341L5.42679 11.3419L5.428 11.3439L5.43098 11.3488L5.43914 11.3619C5.44556 11.372 5.45398 11.3849 5.46447 11.4003C5.48544 11.4311 5.51476 11.4719 5.55308 11.5203C5.62965 11.617 5.74256 11.7447 5.897 11.8835C6.0934 12.06 6.35618 12.2537 6.69465 12.4241C6.69378 12.4252 6.69292 12.4263 6.69205 12.4273C6.67582 12.4475 6.66022 12.4669 6.64536 12.4853C5.85451 12.4131 5.31095 12.1252 4.96123 11.8552C4.76684 11.7052 4.62966 11.5584 4.5432 11.4526C4.52748 11.4334 4.51349 11.4156 4.50117 11.3995C4.52266 9.9971 4.83544 8.72374 5.15176 7.78633C5.31518 7.30202 5.47829 6.91106 5.59965 6.6429C5.61962 6.59878 5.63845 6.558 5.65594 6.52072L5.86183 6.79941L5.86203 6.79977L5.86207 6.79975L5.86289 6.7993L5.86844 6.79626L5.89332 6.78285C5.9159 6.77078 5.95027 6.75264 5.99537 6.7295C6.08497 6.68352 6.21668 6.61793 6.3823 6.54101C7.33026 6.11983 8.07484 6.00827 8.35724 5.9834L8.37547 5.9818L8.39353 5.97887L8.43656 5.97166C8.44842 5.96968 8.4561 5.96847 8.46231 5.9676C8.4695 5.9666 8.47283 5.96634 8.47382 5.96628H8.50629L8.53868 5.96203C9.12911 5.88454 9.72689 5.87879 10.3187 5.94493C11.2499 6.05296 12.1499 6.34335 12.9663 6.79902L13.2763 6.38047C13.3087 6.44636 13.3507 6.53424 13.3996 6.6422C13.521 6.91045 13.6843 7.30152 13.8478 7.78594C14.1642 8.72328 14.4771 9.99634 14.4988 11.3981C14.4864 11.4143 14.4723 11.432 14.4565 11.4512C14.3691 11.5573 14.2305 11.7044 14.0347 11.8548C13.682 12.1257 13.1352 12.414 12.3429 12.4856C12.3337 12.4744 12.3242 12.4628 12.3144 12.4508C12.6652 12.2806 12.9378 12.0845 13.1416 11.9052C13.3013 11.7646 13.4182 11.6348 13.4974 11.5364C13.5371 11.4872 13.5675 11.4456 13.5892 11.4143C13.6 11.3987 13.6087 11.3856 13.6153 11.3753L13.6237 11.3621L13.6268 11.3571L13.628 11.3551L13.6286 11.3542L13.6289 11.3537ZM9.16588 9.63726C9.17953 8.81311 8.45908 8.22521 7.68162 8.22521C6.89203 8.22521 6.19644 8.82178 6.19644 9.63223C6.19644 10.4459 6.90556 11.0393 7.68162 11.0393C8.4702 11.0393 9.16302 10.4446 9.16588 9.63726ZM12.69 9.63223C12.69 8.82178 11.9944 8.22521 11.2048 8.22521C10.4146 8.22521 9.72058 8.82237 9.72058 9.63223C9.72058 10.4453 10.4282 11.0393 11.2048 11.0393C11.9944 11.0393 12.69 10.4427 12.69 9.63223Z" fill="black" stroke="black"/>
</g>
<defs>
<clipPath id="clip0_4018_3492">
<rect width="19" height="22" fill="white"/>
</clipPath>
</defs>
</svg>
