<svg width="560" height="587" viewBox="0 0 560 587" fill="none" xmlns="http://www.w3.org/2000/svg">
<mask id="mask0_3388_4030" style="mask-type:alpha" maskUnits="userSpaceOnUse" x="4" y="4" width="552" height="579">
<path d="M523.767 445.492L519.992 409.622L501.66 389.1L523.282 378.99L507.02 342.815L516.703 335.75L500.138 304.145L471.332 306.032L515.913 233.56L535.096 226.008L532.295 192.757L540.332 158.106L531.319 131.127L495.815 121.99L480.528 108.046L379.009 76.5604L373.893 52.8682L318.019 19.8946L310.862 4.5152L271.886 18.7048L272.19 51.2269L262.629 71.2007L214.091 94.5068L213.865 104.937L191.638 114.377L157.477 105.222L149.559 86.343L122.072 88.9236L136.322 135.087L133.155 160.357L84.1923 162.915L62.0489 142.151L4.53418 152.322L7.94104 196.263L90.708 235.877L110.014 263.159L103.559 278.019L116.529 299.453L146.859 313.521L122.011 490.985L129.99 526.306L203.954 559.018L224.201 553.498L291.557 582.484L337.84 562.298L336.988 536.904L379.494 497.747L446.547 508.708L476.022 524.724L510.98 514.431L555.375 453.834L523.767 445.492Z" fill="white"/>
</mask>
<g mask="url(#mask0_3388_4030)">
<path d="M-464.836 155.443L-434.827 164.934C-404.819 174.565 -344.802 193.547 -285.063 210.296C-225.186 227.045 -165.727 241.561 -105.849 232.209C-46.1113 222.858 13.9059 189.918 73.644 185.871C133.522 181.962 192.981 207.086 252.858 217.275C312.596 227.603 372.613 222.858 432.351 210.575C492.229 198.293 551.688 178.194 611.566 166.33C671.304 154.466 731.321 150.837 761.329 148.883L791.338 147.069V473.674H761.329C731.321 473.674 671.304 473.674 611.566 473.674C551.688 473.674 492.229 473.674 432.351 473.674C372.613 473.674 312.596 473.674 252.858 473.674C192.981 473.674 133.522 473.674 73.644 473.674C13.9059 473.674 -46.1113 473.674 -105.849 473.674C-165.727 473.674 -225.186 473.674 -285.063 473.674C-344.802 473.674 -404.819 473.674 -434.827 473.674H-464.836V155.443Z" fill="#B6C9FF"/>
<path d="M-425.529 225.652L-395.521 227.746C-365.512 229.839 -305.495 234.027 -245.757 245.891C-185.879 257.754 -126.42 277.295 -66.5427 287.484C-6.80463 297.812 53.2126 298.65 112.951 293.067C172.828 287.484 232.287 275.48 292.165 267.525C351.903 259.569 411.92 255.94 471.658 251.055C531.536 246.17 590.995 240.028 650.872 239.191C710.61 238.214 770.627 242.401 800.636 244.495L830.645 246.588V490.844H800.636C770.627 490.844 710.61 490.844 650.872 490.844C590.995 490.844 531.536 490.844 471.658 490.844C411.92 490.844 351.903 490.844 292.165 490.844C232.287 490.844 172.828 490.844 112.951 490.844C53.2126 490.844 -6.80463 490.844 -66.5427 490.844C-126.42 490.844 -185.879 490.844 -245.757 490.844C-305.495 490.844 -365.512 490.844 -395.521 490.844H-425.529V225.652Z" fill="#8B98CE"/>
<path d="M-425.529 310.793L-395.521 307.304C-365.512 303.814 -305.495 296.836 -245.757 302.698C-185.879 308.42 -126.42 327.123 -66.5427 337.731C-6.80463 348.478 53.2126 351.27 112.951 352.945C172.828 354.48 232.287 355.038 292.165 355.038C351.903 355.038 411.92 354.48 471.658 350.851C531.536 347.082 590.995 340.104 650.872 333.404C710.61 326.565 770.627 320.144 800.636 316.795L830.645 313.584V490.845H800.636C770.627 490.845 710.61 490.845 650.872 490.845C590.995 490.845 531.536 490.845 471.658 490.845C411.92 490.845 351.903 490.845 292.165 490.845C232.287 490.845 172.828 490.845 112.951 490.845C53.2126 490.845 -6.80463 490.845 -66.5427 490.845C-126.42 490.845 -185.879 490.845 -245.757 490.845C-305.495 490.845 -365.512 490.845 -395.521 490.845H-425.529V310.793Z" fill="#636A9F"/>
<path d="M-425.529 397.329L-395.521 386.442C-365.512 375.416 -305.495 353.642 -245.757 346.664C-185.879 339.685 -126.42 347.501 -66.5427 347.501C-6.80463 347.501 53.2126 339.685 112.951 336.195C172.828 332.706 232.287 333.543 292.165 334.102C351.903 334.521 411.92 334.52 471.658 335.637C531.536 336.893 590.995 339.126 650.872 348.199C710.61 357.271 770.627 373.183 800.636 380.999L830.645 388.955V490.844H800.636C770.627 490.844 710.61 490.844 650.872 490.844C590.995 490.844 531.536 490.844 471.658 490.844C411.92 490.844 351.903 490.844 292.165 490.844C232.287 490.844 172.828 490.844 112.951 490.844C53.2126 490.844 -6.80463 490.844 -66.5427 490.844C-126.42 490.844 -185.879 490.844 -245.757 490.844C-305.495 490.844 -365.512 490.844 -395.521 490.844H-425.529V397.329Z" fill="#3D3F72"/>
<path d="M-425.529 391.188L-395.532 394.419C-365.535 397.38 -305.541 403.84 -245.827 422.144C-185.972 440.448 -126.536 471.134 -66.682 465.75C-6.96713 460.367 53.0267 418.914 112.742 407.339C172.596 395.764 232.032 413.53 291.886 435.064C351.601 456.598 411.595 481.901 471.31 478.132C531.164 474.633 590.6 442.332 650.454 425.643C710.169 409.223 770.163 408.147 800.16 407.877L830.157 407.339V582.304H800.16C770.163 582.304 710.169 582.304 650.454 582.304C590.6 582.304 531.164 582.304 471.31 582.304C411.595 582.304 351.601 582.304 291.886 582.304C232.032 582.304 172.596 582.304 112.742 582.304C53.0267 582.304 -6.96713 582.304 -66.682 582.304C-126.536 582.304 -185.972 582.304 -245.827 582.304C-305.541 582.304 -365.535 582.304 -395.532 582.304H-425.529V391.188Z" fill="#191847"/>
<path d="M224.943 347.294C223.848 347.294 222.927 346.946 222.18 346.249C221.484 345.502 221.135 344.581 221.135 343.487V333.483H211.132C210.037 333.483 209.116 333.11 208.369 332.363C207.673 331.617 207.324 330.696 207.324 329.601C207.324 328.506 207.673 327.61 208.369 326.913C209.116 326.167 210.037 325.793 211.132 325.793H221.135V315.79C221.135 314.745 221.508 313.849 222.255 313.102C223.051 312.356 223.947 311.982 224.943 311.982C226.087 311.982 227.008 312.356 227.705 313.102C228.402 313.799 228.75 314.695 228.75 315.79V325.793H238.754C239.799 325.793 240.695 326.167 241.441 326.913C242.238 327.66 242.636 328.581 242.636 329.675C242.636 330.721 242.238 331.617 241.441 332.363C240.695 333.11 239.799 333.483 238.754 333.483H228.75V343.487C228.75 344.581 228.402 345.502 227.705 346.249C227.008 346.946 226.087 347.294 224.943 347.294ZM279.354 358.343C278.359 358.343 277.488 357.97 276.741 357.223C275.995 356.476 275.621 355.581 275.621 354.535C275.621 353.839 275.845 353.042 276.293 352.146L297.719 307.652H275.024C273.929 307.652 273.008 307.304 272.262 306.607C271.565 305.861 271.217 304.94 271.217 303.845C271.217 302.75 271.565 301.854 272.262 301.158C273.008 300.411 273.929 300.038 275.024 300.038H303.467C304.512 300.038 305.408 300.411 306.155 301.158C306.901 301.904 307.275 302.8 307.275 303.845C307.275 304.193 307.225 304.542 307.125 304.89C307.026 305.189 306.901 305.512 306.752 305.861L282.863 356.252C282.066 357.646 280.897 358.343 279.354 358.343ZM330.369 358.343C324.695 358.343 320.29 355.78 317.155 350.653C314.069 345.477 312.526 338.311 312.526 329.153C312.526 319.946 314.069 312.779 317.155 307.652C320.29 302.526 324.695 299.963 330.369 299.963C334.151 299.963 337.361 301.158 339.999 303.546C342.687 305.886 344.727 309.245 346.121 313.625C347.514 317.955 348.211 323.131 348.211 329.153C348.211 335.175 347.514 340.376 346.121 344.756C344.727 349.086 342.687 352.445 339.999 354.834C337.361 357.173 334.151 358.343 330.369 358.343ZM330.369 350.579C332.658 350.579 334.549 349.658 336.042 347.817C337.535 345.925 338.655 343.362 339.402 340.127C340.148 336.892 340.522 333.234 340.522 329.153C340.522 325.072 340.148 321.414 339.402 318.179C338.655 314.944 337.535 312.381 336.042 310.489C334.549 308.598 332.658 307.652 330.369 307.652C328.079 307.652 326.188 308.598 324.695 310.489C323.202 312.331 322.082 314.869 321.335 318.104C320.589 321.339 320.216 325.022 320.216 329.153C320.216 333.284 320.589 336.967 321.335 340.202C322.082 343.437 323.202 345.975 324.695 347.817C326.238 349.658 328.129 350.579 330.369 350.579ZM365.167 358.343C364.072 358.343 363.151 357.97 362.405 357.223C361.708 356.476 361.359 355.581 361.359 354.535C361.359 353.49 361.658 352.644 362.255 351.997L401.523 301.531C402.419 300.535 403.44 300.038 404.584 300.038C405.679 300.038 406.6 300.411 407.347 301.158C408.093 301.904 408.466 302.8 408.466 303.845C408.466 304.691 408.193 305.463 407.645 306.159L368.004 357.148C367.257 357.945 366.312 358.343 365.167 358.343ZM369.646 329.825C366.909 329.825 364.395 329.153 362.106 327.809C359.866 326.416 358.075 324.599 356.731 322.359C355.387 320.12 354.715 317.656 354.715 314.969C354.715 312.281 355.387 309.817 356.731 307.578C358.075 305.288 359.866 303.472 362.106 302.128C364.395 300.734 366.909 300.038 369.646 300.038C372.383 300.038 374.872 300.734 377.112 302.128C379.351 303.472 381.143 305.288 382.487 307.578C383.83 309.817 384.502 312.281 384.502 314.969C384.502 317.656 383.83 320.12 382.487 322.359C381.143 324.599 379.351 326.416 377.112 327.809C374.872 329.153 372.383 329.825 369.646 329.825ZM369.646 322.21C371.637 322.21 373.329 321.513 374.723 320.12C376.166 318.676 376.888 316.959 376.888 314.969C376.888 312.978 376.166 311.261 374.723 309.817C373.279 308.374 371.587 307.652 369.646 307.652C367.606 307.652 365.864 308.374 364.42 309.817C363.027 311.261 362.33 312.978 362.33 314.969C362.33 316.959 363.027 318.676 364.42 320.12C365.864 321.513 367.606 322.21 369.646 322.21ZM399.956 358.343C397.268 358.343 394.78 357.671 392.49 356.327C390.251 354.983 388.459 353.192 387.115 350.952C385.771 348.663 385.1 346.174 385.1 343.487C385.1 340.749 385.771 338.261 387.115 336.021C388.459 333.781 390.251 331.99 392.49 330.646C394.73 329.302 397.218 328.63 399.956 328.63C402.643 328.63 405.107 329.302 407.347 330.646C409.636 331.94 411.453 333.707 412.796 335.946C414.19 338.186 414.887 340.699 414.887 343.487C414.887 346.224 414.19 348.712 412.796 350.952C411.453 353.192 409.661 354.983 407.421 356.327C405.182 357.671 402.693 358.343 399.956 358.343ZM399.956 350.728C401.996 350.728 403.713 350.031 405.107 348.638C406.55 347.194 407.272 345.477 407.272 343.487C407.272 341.496 406.55 339.804 405.107 338.41C403.713 336.967 401.996 336.245 399.956 336.245C397.965 336.245 396.248 336.942 394.805 338.335C393.411 339.729 392.714 341.446 392.714 343.487C392.714 345.477 393.411 347.194 394.805 348.638C396.248 350.031 397.965 350.728 399.956 350.728Z" fill="white"/>
</g>
<path d="M521.484 445.727L521.646 447.263L523.14 447.658L551.571 455.161L509.565 512.496L476.222 522.314L447.561 506.74L447.228 506.559L446.853 506.497L379.8 495.536L378.723 495.36L377.921 496.099L335.415 535.257L334.66 535.953L334.694 536.979L335.495 560.854L291.495 580.044L225.031 551.441L224.311 551.131L223.556 551.337L204.077 556.648L131.87 524.714L124.23 490.89L149.021 313.832L149.252 312.188L147.746 311.489L118.036 297.709L106.018 277.85L112.012 264.051L112.515 262.894L111.786 261.865L92.4806 234.583L92.1443 234.108L91.6193 233.857L10.0184 194.801L6.86844 154.174L61.2792 144.552L82.6047 164.549L83.3007 165.201L84.2535 165.152L133.216 162.594L135.088 162.496L135.322 160.635L138.489 135.365L138.549 134.887L138.407 134.426L124.969 90.8958L148.075 88.7266L155.356 106.088L155.781 107.101L156.842 107.385L191.003 116.54L191.748 116.74L192.458 116.438L214.685 106.999L216.017 106.433L216.049 104.986L216.245 95.9304L263.543 73.2196L264.253 72.8785L264.593 72.1677L274.155 52.1939L274.379 51.7253L274.374 51.2059L274.084 20.2675L309.643 7.32236L315.933 20.8395L316.226 21.47L316.825 21.8234L371.855 54.2989L376.764 77.0331L377.04 78.312L378.289 78.6995L479.332 110.037L494.25 123.644L494.661 124.02L495.201 124.159L529.525 132.992L537.952 158.216L530.057 192.251L529.978 192.594L530.007 192.945L532.669 224.535L515.037 231.476L514.341 231.75L513.949 232.387L469.369 304.859L467.098 308.551L471.423 308.267L498.775 306.475L513.767 335.079L505.644 341.005L504.177 342.076L504.921 343.733L520.279 377.895L500.656 387.071L497.928 388.346L499.934 390.592L517.785 410.575L521.484 445.727Z" stroke="#191847" stroke-width="4.47926"/>
</svg>
