<svg width="560" height="587" viewBox="0 0 560 587" fill="none" xmlns="http://www.w3.org/2000/svg">
<mask id="mask0_5010_5054" style="mask-type:alpha" maskUnits="userSpaceOnUse" x="4" y="4" width="552" height="579">
<path d="M523.767 445.492L519.992 409.622L501.66 389.1L523.282 378.99L507.02 342.815L516.703 335.75L500.138 304.145L471.332 306.032L515.913 233.56L535.096 226.008L532.295 192.757L540.332 158.106L531.319 131.127L495.815 121.99L480.528 108.046L379.009 76.5604L373.893 52.8681L318.019 19.8945L310.862 4.51514L271.886 18.7047L272.19 51.2268L262.629 71.2006L214.091 94.5068L213.865 104.937L191.638 114.377L157.477 105.222L149.559 86.3429L122.072 88.9235L136.322 135.087L133.155 160.357L84.1923 162.915L62.0489 142.151L4.53418 152.322L7.94104 196.263L90.708 235.877L110.014 263.159L103.559 278.019L116.529 299.453L146.859 313.521L122.011 490.985L129.99 526.306L203.954 559.018L224.201 553.498L291.557 582.484L337.84 562.298L336.988 536.904L379.494 497.746L446.547 508.708L476.022 524.724L510.98 514.431L555.375 453.834L523.767 445.492Z" fill="white"/>
</mask>
<g mask="url(#mask0_5010_5054)">
<path d="M-464.836 155.443L-434.827 164.934C-404.819 174.565 -344.802 193.547 -285.063 210.296C-225.186 227.045 -165.727 241.561 -105.849 232.21C-46.1113 222.858 13.9059 189.918 73.644 185.871C133.522 181.963 192.981 207.086 252.858 217.275C312.596 227.604 372.613 222.858 432.351 210.575C492.229 198.293 551.688 178.194 611.566 166.33C671.304 154.466 731.321 150.837 761.329 148.883L791.338 147.069V473.674H761.329C731.321 473.674 671.304 473.674 611.566 473.674C551.688 473.674 492.229 473.674 432.351 473.674C372.613 473.674 312.596 473.674 252.858 473.674C192.981 473.674 133.522 473.674 73.644 473.674C13.9059 473.674 -46.1113 473.674 -105.849 473.674C-165.727 473.674 -225.186 473.674 -285.063 473.674C-344.802 473.674 -404.819 473.674 -434.827 473.674H-464.836V155.443Z" fill="#3666F5"/>
<path d="M-425.529 225.652L-395.521 227.746C-365.512 229.84 -305.495 234.027 -245.757 245.891C-185.879 257.755 -126.42 277.295 -66.5427 287.484C-6.80463 297.813 53.2126 298.65 112.951 293.067C172.828 287.484 232.287 275.481 292.165 267.525C351.903 259.569 411.92 255.94 471.658 251.055C531.536 246.17 590.995 240.029 650.872 239.191C710.61 238.214 770.627 242.401 800.636 244.495L830.645 246.589V490.845H800.636C770.627 490.845 710.61 490.845 650.872 490.845C590.995 490.845 531.536 490.845 471.658 490.845C411.92 490.845 351.903 490.845 292.165 490.845C232.287 490.845 172.828 490.845 112.951 490.845C53.2126 490.845 -6.80463 490.845 -66.5427 490.845C-126.42 490.845 -185.879 490.845 -245.757 490.845C-305.495 490.845 -365.512 490.845 -395.521 490.845H-425.529V225.652Z" fill="#2351D8"/>
<path d="M-425.529 416.985L-395.521 406.098C-365.512 395.072 -305.495 373.298 -245.757 366.319C-185.879 359.34 -126.42 367.157 -66.5427 367.157C-6.80462 367.157 46.762 343.145 106.5 339.656C166.378 336.166 292.165 345.655 292.165 345.655C351.665 351 459 359.155 521.5 345.655C580.041 333.011 590.995 358.782 650.872 367.854C710.61 376.927 770.628 392.838 800.636 400.655L830.645 408.61V510.5H800.636C770.628 510.5 710.61 510.5 650.872 510.5C590.995 510.5 531.536 510.5 471.658 510.5C411.92 510.5 351.903 510.5 292.165 510.5C232.287 510.5 172.828 510.5 112.951 510.5C53.2126 510.5 -6.80462 510.5 -66.5427 510.5C-126.42 510.5 -185.879 510.5 -245.757 510.5C-305.495 510.5 -365.512 510.5 -395.521 510.5H-425.529V416.985Z" fill="#113BBB"/>
<path d="M-425.529 391.188L-395.532 394.419C-365.535 397.38 -305.541 403.84 -245.827 422.144C-185.972 440.448 -126.536 471.134 -66.682 465.75C-6.96713 460.367 53.0267 418.914 112.742 407.339C172.596 395.764 232.032 413.53 291.886 435.064C351.601 456.598 411.595 481.901 471.31 478.132C531.164 474.633 590.6 442.332 650.454 425.643C710.169 409.223 770.163 408.147 800.16 407.877L830.157 407.339V582.304H800.16C770.163 582.304 710.169 582.304 650.454 582.304C590.6 582.304 531.164 582.304 471.31 582.304C411.595 582.304 351.601 582.304 291.886 582.304C232.032 582.304 172.596 582.304 112.742 582.304C53.0267 582.304 -6.96713 582.304 -66.682 582.304C-126.536 582.304 -185.972 582.304 -245.827 582.304C-305.541 582.304 -365.535 582.304 -395.532 582.304H-425.529V391.188Z" fill="#052DA5"/>
<path d="M224.943 350.131C223.848 350.131 222.927 349.782 222.18 349.086C221.484 348.339 221.135 347.418 221.135 346.323V336.32H211.132C210.037 336.32 209.116 335.946 208.369 335.2C207.673 334.453 207.324 333.533 207.324 332.438C207.324 331.343 207.673 330.447 208.369 329.75C209.116 329.004 210.037 328.63 211.132 328.63H221.135V318.627C221.135 317.581 221.508 316.686 222.255 315.939C223.051 315.193 223.947 314.819 224.943 314.819C226.087 314.819 227.008 315.193 227.705 315.939C228.402 316.636 228.75 317.532 228.75 318.627V328.63H238.754C239.799 328.63 240.695 329.004 241.441 329.75C242.238 330.497 242.636 331.393 242.636 332.438C242.636 333.533 242.238 334.453 241.441 335.2C240.695 335.946 239.799 336.32 238.754 336.32H228.75V346.323C228.75 347.418 228.402 348.339 227.705 349.086C227.008 349.782 226.087 350.131 224.943 350.131ZM279.354 358.343C278.359 358.343 277.488 357.97 276.741 357.223C275.995 356.476 275.621 355.581 275.621 354.535C275.621 354.137 275.671 353.764 275.771 353.416C275.92 353.017 276.094 352.594 276.293 352.146L297.719 307.652H275.024C273.929 307.652 273.008 307.304 272.262 306.607C271.565 305.861 271.217 304.94 271.217 303.845C271.217 302.75 271.565 301.854 272.262 301.158C273.008 300.411 273.929 300.038 275.024 300.038H303.467C304.512 300.038 305.408 300.411 306.155 301.158C306.901 301.904 307.275 302.8 307.275 303.845C307.275 304.193 307.225 304.542 307.125 304.89C307.026 305.189 306.901 305.512 306.752 305.861L282.863 356.252C282.066 357.646 280.897 358.343 279.354 358.343ZM330.369 358.343C326.586 358.343 323.351 357.198 320.663 354.909C318.026 352.57 316.01 349.235 314.616 344.905C313.223 340.525 312.526 335.275 312.526 329.153C312.526 323.031 313.223 317.805 314.616 313.476C316.01 309.096 318.026 305.761 320.663 303.472C323.351 301.133 326.586 299.963 330.369 299.963C334.151 299.963 337.361 301.158 339.999 303.546C342.687 305.886 344.727 309.245 346.121 313.625C347.514 317.955 348.211 323.131 348.211 329.153C348.211 335.175 347.514 340.376 346.121 344.756C344.727 349.086 342.687 352.445 339.999 354.834C337.361 357.173 334.151 358.343 330.369 358.343ZM330.369 350.579C332.658 350.579 334.549 349.658 336.042 347.817C337.535 345.925 338.655 343.362 339.402 340.127C340.148 336.892 340.522 333.234 340.522 329.153C340.522 325.072 340.148 321.414 339.402 318.179C338.655 314.944 337.535 312.381 336.042 310.489C334.549 308.598 332.658 307.652 330.369 307.652C328.079 307.652 326.188 308.598 324.695 310.489C323.202 312.331 322.082 314.869 321.335 318.104C320.589 321.339 320.216 325.022 320.216 329.153C320.216 333.284 320.589 336.967 321.335 340.202C322.082 343.437 323.202 345.975 324.695 347.817C326.238 349.658 328.129 350.579 330.369 350.579ZM365.167 358.343C364.072 358.343 363.151 357.97 362.405 357.223C361.708 356.476 361.359 355.581 361.359 354.535C361.359 353.49 361.658 352.644 362.255 351.997L401.523 301.531C401.971 301.033 402.444 300.66 402.942 300.411C403.489 300.162 404.037 300.038 404.584 300.038C405.679 300.038 406.6 300.411 407.347 301.158C408.093 301.904 408.466 302.8 408.466 303.845C408.466 304.691 408.193 305.463 407.645 306.159L368.004 357.148C367.257 357.945 366.312 358.343 365.167 358.343ZM369.646 329.825C366.909 329.825 364.395 329.153 362.106 327.809C359.866 326.416 358.075 324.599 356.731 322.359C355.387 320.12 354.715 317.656 354.715 314.969C354.715 312.281 355.387 309.817 356.731 307.578C358.075 305.288 359.866 303.472 362.106 302.128C364.395 300.734 366.909 300.038 369.646 300.038C372.383 300.038 374.872 300.734 377.112 302.128C379.351 303.472 381.143 305.288 382.487 307.578C383.83 309.817 384.502 312.281 384.502 314.969C384.502 317.656 383.83 320.12 382.487 322.359C381.143 324.599 379.351 326.416 377.112 327.809C374.872 329.153 372.383 329.825 369.646 329.825ZM369.646 322.21C370.99 322.21 372.209 321.887 373.304 321.24C374.399 320.593 375.27 319.722 375.917 318.627C376.564 317.482 376.888 316.263 376.888 314.969C376.888 313.625 376.539 312.405 375.842 311.311C375.195 310.216 374.324 309.345 373.229 308.698C372.135 308.001 370.94 307.652 369.646 307.652C368.302 307.652 367.058 308.001 365.913 308.698C364.818 309.345 363.947 310.216 363.3 311.311C362.653 312.405 362.33 313.625 362.33 314.969C362.33 316.263 362.653 317.482 363.3 318.627C363.947 319.722 364.818 320.593 365.913 321.24C367.058 321.887 368.302 322.21 369.646 322.21ZM399.956 358.343C397.268 358.343 394.78 357.671 392.49 356.327C390.251 354.983 388.459 353.192 387.115 350.952C385.771 348.663 385.1 346.174 385.1 343.487C385.1 340.749 385.771 338.261 387.115 336.021C388.459 333.781 390.251 331.99 392.49 330.646C394.73 329.302 397.218 328.63 399.956 328.63C402.643 328.63 405.107 329.302 407.347 330.646C409.636 331.94 411.453 333.707 412.796 335.946C414.19 338.186 414.887 340.699 414.887 343.487C414.887 346.224 414.19 348.712 412.796 350.952C411.453 353.192 409.661 354.983 407.421 356.327C405.182 357.671 402.693 358.343 399.956 358.343ZM399.956 350.728C401.3 350.728 402.519 350.405 403.614 349.758C404.759 349.111 405.654 348.24 406.301 347.145C406.948 346 407.272 344.781 407.272 343.487C407.272 342.143 406.948 340.923 406.301 339.828C405.654 338.734 404.759 337.863 403.614 337.216C402.519 336.569 401.3 336.245 399.956 336.245C398.662 336.245 397.442 336.569 396.298 337.216C395.203 337.863 394.332 338.734 393.685 339.828C393.038 340.923 392.714 342.143 392.714 343.487C392.714 344.781 393.038 346 393.685 347.145C394.332 348.24 395.203 349.111 396.298 349.758C397.442 350.405 398.662 350.728 399.956 350.728Z" fill="#FEFEFE"/>
</g>
<path d="M521.723 445.702L521.867 447.074L523.201 447.426L551.972 455.019L509.71 512.703L476.194 522.571L447.447 506.95L447.149 506.788L446.814 506.734L379.761 495.773L378.8 495.616L378.083 496.276L335.578 535.433L334.903 536.054L334.934 536.971L335.74 561.008L291.496 580.305L224.936 551.661L224.294 551.384L223.619 551.568L204.057 556.902L131.663 524.884L123.987 490.9L148.784 313.798L148.99 312.33L147.645 311.707L117.869 297.896L105.749 277.868L111.792 263.955L112.241 262.923L111.59 262.003L92.285 234.721L91.9847 234.297L91.5158 234.073L9.79015 194.958L6.61273 153.975L61.3556 144.295L82.7686 164.374L83.3902 164.957L84.241 164.912L133.204 162.354L134.876 162.267L135.084 160.606L138.251 135.335L138.305 134.908L138.178 134.497L124.653 90.6847L148.228 88.4715L155.577 105.995L155.956 106.9L156.904 107.154L191.065 116.309L191.73 116.487L192.364 116.218L214.591 106.778L215.781 106.273L215.809 104.981L216.008 95.778L263.439 73.0035L264.073 72.6989L264.377 72.0642L273.939 52.0903L274.139 51.6719L274.135 51.2081L273.843 20.1002L309.767 7.02194L316.15 20.7384L316.412 21.3014L316.947 21.617L372.067 54.1457L376.998 76.9825L377.245 78.1245L378.36 78.4706L479.454 109.824L494.411 123.467L494.779 123.803L495.261 123.927L529.711 132.792L538.2 158.204L530.291 192.305L530.22 192.612L530.246 192.925L532.923 224.693L515.125 231.699L514.503 231.944L514.154 232.512L469.573 304.984L467.545 308.281L471.408 308.028L498.915 306.226L514.075 335.151L505.785 341.199L504.475 342.155L505.14 343.635L520.594 378.012L500.757 387.288L498.322 388.427L500.113 390.432L518.015 410.473L521.723 445.702Z" stroke="#07061F" stroke-width="4"/>
</svg>
