<svg width="922" height="582" viewBox="0 0 922 582" fill="none" xmlns="http://www.w3.org/2000/svg">
<path fill-rule="evenodd" clip-rule="evenodd" d="M701.831 452.849C649.724 530.231 561.307 581.134 461 581.134C360.693 581.134 272.276 530.232 220.169 452.85C212.081 498.217 200.63 526.52 187.933 526.52C163.427 526.52 143.56 421.074 143.56 291C143.56 160.926 163.427 55.4799 187.933 55.4799C200.63 55.4799 212.081 83.7832 220.169 129.151C272.276 51.7691 360.694 0.867337 461 0.867337C561.307 0.867337 649.724 51.7698 701.831 129.153C709.919 83.7841 721.371 55.4804 734.067 55.4804C758.574 55.4804 778.441 160.926 778.441 291C778.441 421.075 758.574 526.52 734.067 526.52C721.371 526.52 709.919 498.217 701.831 452.849ZM614 291C614 390.411 545.276 471 460.5 471C375.724 471 307 390.411 307 291C307 191.589 375.724 111 460.5 111C545.276 111 614 191.589 614 291ZM61.6399 291C61.6399 390.912 76.9219 471.906 95.7733 471.906C114.625 471.906 129.907 390.912 129.907 291C129.907 191.088 114.625 110.093 95.7733 110.093C76.9219 110.093 61.6399 191.088 61.6399 291ZM24.0931 410.466C10.8972 410.466 0.199814 356.979 0.199814 290.999C0.199814 225.02 10.8972 171.533 24.0931 171.533C37.2891 171.533 47.9865 225.02 47.9865 290.999C47.9865 356.979 37.2891 410.466 24.0931 410.466ZM826.227 471.906C845.079 471.906 860.361 390.912 860.361 291C860.361 191.088 845.079 110.093 826.227 110.093C807.376 110.093 792.094 191.088 792.094 291C792.094 390.912 807.376 471.906 826.227 471.906ZM921.801 291C921.801 356.979 911.103 410.466 897.907 410.466C884.711 410.466 874.014 356.979 874.014 291C874.014 225.02 884.711 171.533 897.907 171.533C911.103 171.533 921.801 225.02 921.801 291Z" fill="#03030E"/>
</svg>
