<svg width="1060" height="474" viewBox="0 0 1060 474" fill="none" xmlns="http://www.w3.org/2000/svg">
<path fill-rule="evenodd" clip-rule="evenodd" d="M403.922 158.414C409.71 161.902 415.396 163.588 418.066 162.9C424.759 161.174 425.375 136.687 420.196 127.034C415.017 117.38 388.391 113.172 387.049 132.299C386.583 138.938 389.371 144.862 393.489 149.696L386.104 184.115H407.555L403.922 158.414Z" fill="#F2E3B5"/>
<path fill-rule="evenodd" clip-rule="evenodd" d="M411.723 116.519C408.792 115.626 404.537 115.323 402.747 115.528C403.765 113.088 404.169 110.37 403.84 107.724C403.52 105.153 402.371 102.963 401.308 100.669C400.818 99.6115 400.263 98.5597 399.436 97.7508C398.593 96.9268 397.525 96.3828 396.406 96.1233C395.261 95.8576 394.064 95.8798 392.917 96.1208C392.409 96.2275 391.954 96.4595 391.456 96.5884C390.947 96.7206 390.699 96.4016 390.33 96.0811C389.438 95.3087 388.131 94.9274 387.004 94.791C385.738 94.638 384.426 94.8288 383.219 95.2447C382.044 95.6496 380.916 96.3072 380.067 97.265C379.689 97.6914 379.346 98.1767 379.123 98.7125C379.031 98.9324 379.016 99.0627 378.797 99.1432C378.594 99.2178 378.356 99.22 378.147 99.2909C376.122 99.9768 374.39 101.542 373.448 103.551C372.897 104.723 372.637 106.786 372.708 109.099C372.78 111.412 374.868 117.447 376.821 119.649C378.565 121.613 381.128 122.91 383.601 123.478C381.96 125.354 380.867 127.699 380.059 130.084C379.181 132.674 378.638 135.366 378.437 138.108C378.246 140.714 378.229 143.47 378.84 146.02C379.411 148.404 380.633 150.361 382.673 151.602C383.608 152.17 384.613 152.597 385.624 152.988C386.621 153.372 387.621 153.746 388.665 153.962C390.64 154.37 392.917 154.3 394.439 152.728C394.987 152.161 395.591 151.448 395.991 150.756C396.135 150.507 396.222 150.344 396.047 150.1C395.837 149.809 395.499 149.585 395.229 149.357C393.695 148.057 392.746 146.321 392.506 144.257C392.263 142.164 392.826 139.462 394.861 138.548C397.374 137.42 400.14 138.715 402.374 139.921C403.323 136.572 405.271 133.556 408.326 132.019C411.707 130.32 415.585 130.121 419.059 128.662C419.964 128.282 420.886 127.851 421.552 127.076C421.831 126.753 422.157 126.333 422.268 125.905C422.414 125.343 422.052 124.871 421.772 124.433C420.286 122.109 414.654 117.413 411.723 116.519Z" fill="#03030E"/>
<path fill-rule="evenodd" clip-rule="evenodd" d="M378.954 258.297L412.587 368.251L428.88 461.76H441.655L424.439 258.297H378.954Z" fill="#DED0A4"/>
<path fill-rule="evenodd" clip-rule="evenodd" d="M366.922 258.297C369.206 318.667 366.518 349.808 366.007 355.293C365.495 360.778 358.494 396.342 341.92 463.601L355.532 458.926C381.726 397.24 390.652 365.18 393.657 357.08C396.661 348.98 404.64 316.052 417.594 258.297H366.922Z" fill="#F2E3B5"/>
<path fill-rule="evenodd" clip-rule="evenodd" d="M339.629 471.905L340.523 453.136L359.292 453.136C372.641 462.521 394.148 468.33 394.148 468.33V471.905H360.185L348.567 470.118V471.905H339.629Z" fill="#03030E"/>
<path fill-rule="evenodd" clip-rule="evenodd" d="M423.642 471.905L424.536 453.136L443.305 453.136C456.655 462.521 478.162 468.33 478.162 468.33V471.905H444.199L432.58 470.118V471.905H423.642Z" fill="#03030E"/>
<path fill-rule="evenodd" clip-rule="evenodd" d="M333.728 304.69C336.347 299.377 345.267 247.589 345.267 247.589L363.944 247.663C363.944 247.663 346.645 303.506 345.267 306.922C343.476 311.361 346.518 317.81 348.581 322.183C348.9 322.859 349.196 323.486 349.446 324.048C346.584 325.329 345.209 323.781 343.759 322.149C342.122 320.305 340.389 318.354 336.311 320.252C334.735 320.985 333.244 321.852 331.788 322.698C326.756 325.623 322.133 328.31 315.845 324.43C314.848 323.815 313.756 321.499 316.395 319.689C322.971 315.18 332.448 307.288 333.728 304.69ZM455.099 290.201L447.773 255.597L432.697 263.022L445.961 290.556C445.671 302.87 446.398 308.76 448.141 308.227C449.611 307.776 449.966 306.443 450.293 305.216C450.548 304.259 450.785 303.367 451.52 303.005C453.198 302.179 457.077 305.887 460.608 309.563C464.139 313.239 464.54 310.566 464.37 308.917C462.568 303.145 459.477 296.906 455.099 290.201Z" fill="#F2E3B5"/>
<path fill-rule="evenodd" clip-rule="evenodd" d="M401.447 168.767L395.81 174.217C414.757 204.597 425.388 241.186 427.703 283.987L467.064 281.768C455.459 232.166 414.258 152.986 401.447 168.767Z" fill="#03030E"/>
<path fill-rule="evenodd" clip-rule="evenodd" d="M374.486 258.297L388.786 314.317H432.464L425.952 258.297H374.486Z" fill="#E7A543"/>
<path fill-rule="evenodd" clip-rule="evenodd" d="M366.441 258.297C359.383 279.453 363.76 314.317 363.76 314.317H408.332L420.589 258.297H366.441Z" fill="#FFB648"/>
<path fill-rule="evenodd" clip-rule="evenodd" d="M364.654 266.341H433.474C433.474 266.341 409.558 208.191 409.558 167.545L388.798 164.452C372.483 190.691 367.876 222.997 364.654 266.341Z" fill="#FEFEFE"/>
<path fill-rule="evenodd" clip-rule="evenodd" d="M333.372 295.835C340.899 210.924 388.342 164.452 388.342 164.452L388.359 164.466C388.361 164.462 388.364 164.457 388.367 164.452H389.722C392.154 164.536 397.131 164.754 397.131 164.754L402.147 179.089C402.943 205.306 411.443 284.757 411.443 284.757H366.397C366.473 288.4 366.643 292.095 366.916 295.835H333.372Z" fill="#2F3676"/>
<path fill-rule="evenodd" clip-rule="evenodd" d="M366.405 285.11C366.045 269.246 367.453 254.351 369.8 240.872C371.028 256.867 373.595 276.113 378.954 285.11H366.405Z" fill="black" fill-opacity="0.1"/>
<path fill-rule="evenodd" clip-rule="evenodd" d="M376.372 257.403L398.617 247.062V257.403H376.372Z" fill="white" fill-opacity="0.2"/>
<path fill-rule="evenodd" clip-rule="evenodd" d="M536.198 158.414C541.986 161.902 547.673 163.588 550.342 162.9C557.036 161.174 557.651 136.687 552.472 127.034C547.293 117.38 520.667 113.172 519.325 132.299C518.859 138.938 521.647 144.862 525.765 149.696L518.381 184.115H539.831L536.198 158.414Z" fill="#B28B67"/>
<path fill-rule="evenodd" clip-rule="evenodd" d="M561.975 113.651C561.531 112.09 560.336 110.753 558.726 110.356C558.335 110.26 557.932 110.221 557.53 110.237C557.386 110.243 557.346 110.285 557.278 110.184C557.228 110.109 557.227 109.927 557.207 109.839C557.143 109.566 557.063 109.296 556.964 109.033C556.627 108.138 556.061 107.345 555.378 106.677C554.102 105.427 552.377 104.565 550.585 104.409C549.604 104.324 548.63 104.483 547.703 104.802C547.223 104.967 546.757 105.173 546.304 105.4C546.168 105.469 545.725 105.804 545.588 105.782C545.436 105.758 545.132 105.382 545.009 105.288C543.489 104.121 541.611 103.662 539.717 103.676C537.579 103.692 535.52 103.799 533.737 105.102C533.36 105.378 533 105.68 532.658 105.998C532.478 106.166 532.303 106.34 532.137 106.521C532.036 106.63 531.939 106.741 531.844 106.856C531.685 107.051 531.71 107.115 531.487 106.979C530.628 106.457 529.634 106.214 528.633 106.337C528.038 106.41 527.459 106.588 526.91 106.823C526.723 106.903 526.29 107.223 526.09 107.226C525.892 107.229 525.466 106.933 525.262 106.858C524.161 106.451 522.975 106.351 521.819 106.539C520.626 106.733 519.454 107.209 518.443 107.867C517.956 108.183 517.532 108.534 517.192 109.004C517.044 109.207 516.911 109.422 516.745 109.61C516.647 109.721 516.454 109.834 516.401 109.973C516.433 109.89 515.097 109.375 514.97 109.342C514.299 109.166 513.615 109.202 512.957 109.418C511.72 109.825 510.656 110.738 509.782 111.674C509.333 112.155 508.94 112.686 508.607 113.252C508.447 113.524 508.301 113.802 508.167 114.087C508.102 114.225 508.059 114.398 507.974 114.522C507.864 114.682 507.79 114.685 507.59 114.755C506.578 115.11 505.655 115.71 504.953 116.521C504.242 117.342 503.781 118.352 503.587 119.417C503.576 119.479 503.569 119.739 503.532 119.773C503.482 119.82 503.278 119.799 503.201 119.808C502.935 119.839 502.67 119.886 502.409 119.948C501.927 120.062 501.458 120.23 501.015 120.449C499.286 121.304 498.05 122.908 497.445 124.712C496.81 126.605 496.822 128.774 497.58 130.632C497.703 130.933 497.849 131.224 498.02 131.499C498.125 131.669 498.159 131.669 498.091 131.846C498.015 132.044 497.876 132.236 497.785 132.429C497.49 133.058 497.284 133.726 497.154 134.408C496.94 135.527 496.835 136.703 497.045 137.83C497.143 138.353 497.314 138.865 497.574 139.331C497.706 139.569 497.862 139.794 498.037 140.003C498.128 140.111 498.224 140.215 498.326 140.314C498.383 140.37 498.459 140.42 498.508 140.483C498.628 140.637 498.653 140.511 498.592 140.737C498.505 141.053 498.309 141.365 498.189 141.673C498.065 141.991 497.953 142.312 497.851 142.637C497.644 143.295 497.469 143.965 497.359 144.646C497.149 145.954 497.186 147.347 497.804 148.547C498.069 149.061 498.448 149.511 498.909 149.861C499.134 150.033 499.378 150.18 499.634 150.302C499.765 150.364 499.933 150.391 499.993 150.518C500.058 150.655 499.962 150.927 499.94 151.079C499.75 152.41 499.654 153.806 500.05 155.11C500.414 156.31 501.216 157.37 502.257 158.072C504.276 159.434 506.999 159.357 509.121 158.267C509.674 157.983 510.191 157.63 510.653 157.214C511.828 158.796 514.247 158.746 515.965 158.295C518.106 157.734 519.823 156.245 520.813 154.29C522.166 155.937 525.006 155.403 525.944 153.616C526.174 153.178 526.31 152.696 526.377 152.209C526.412 151.952 526.39 151.693 526.416 151.439C526.45 151.115 526.667 150.8 526.791 150.486C527.033 149.876 527.184 149.245 527.19 148.587C527.194 148.243 527.15 147.908 527.118 147.567C527.088 147.26 527.173 146.974 527.222 146.671C526.673 146.761 526.004 146.613 525.487 146.454C524.979 146.298 524.504 145.886 524.146 145.511C523.314 144.638 522.806 143.494 522.458 142.356C521.695 139.858 522.008 136.861 524.521 135.489C525.692 134.851 529.199 134.853 530.593 135.168C532.059 135.5 533.721 138.735 533.802 139.039C533.853 139.227 533.828 139.46 534.001 139.586C534.38 139.861 535.007 139.383 535.287 139.147C535.771 138.739 536.116 138.197 536.414 137.647C537.065 136.45 537.59 135.166 537.961 133.855C538.246 132.845 538.429 131.802 538.803 130.818C539.174 129.838 539.76 128.962 540.671 128.407C541.662 127.803 542.798 127.485 543.886 127.105C544.964 126.729 546.024 126.269 546.86 125.471C547.044 125.296 547.222 125.109 547.37 124.903C547.487 124.739 547.602 124.427 547.78 124.324C548.057 124.163 548.46 124.581 548.7 124.733C549.88 125.483 550.864 126.528 551.659 127.67C552.448 128.806 553.096 129.899 553.623 131.167C554.013 132.107 554.257 133.312 554.944 134.083C555.251 134.427 557.53 134.635 558.269 134.335C559.007 134.034 559.835 133.254 560.082 132.765C560.336 132.265 560.397 131.715 560.288 131.167C560.225 130.844 560.094 130.543 560.023 130.227C559.963 129.961 559.909 129.709 559.779 129.466C559.534 129.004 559.115 128.672 558.609 128.533C559.135 128.048 559.571 127.468 559.873 126.82C560.186 126.146 560.452 125.326 560.527 124.587C560.588 123.986 560.494 123.364 560.165 122.848C559.82 122.306 559.209 121.953 558.68 121.615C559.488 120.983 560.179 120.215 560.747 119.364C561.853 117.709 562.536 115.624 561.975 113.651Z" fill="#03030E"/>
<path fill-rule="evenodd" clip-rule="evenodd" d="M517.487 259.191L561.355 370.22L590.777 464.085H602.395L557.415 259.191L517.487 259.191Z" fill="#997659"/>
<path fill-rule="evenodd" clip-rule="evenodd" d="M508.654 259.191C508.187 298.207 501.375 350.736 500.286 353.168C499.198 355.6 489.781 463.415 489.781 463.415L502.294 461.627C502.294 461.627 520.523 372.639 524.567 365.844C528.61 359.048 541.775 296.517 552.344 259.191H508.654Z" fill="#B28B67"/>
<path fill-rule="evenodd" clip-rule="evenodd" d="M490.89 457.161C489.955 456.692 488.796 457.06 488.39 458.025C487.649 459.784 486.64 462.426 486.563 463.941C486.44 466.355 487.009 471.028 487.009 471.028C489.81 471.171 537.354 473.588 537.354 473.588C537.354 473.588 539.646 467.2 535.444 466.468C531.243 465.736 528.467 465.177 528.467 465.177L505.598 453.555C505.149 453.327 504.6 453.515 504.385 453.97L502.695 457.542C502.695 457.542 498.689 459.169 496.241 459.045C494.752 458.969 492.457 457.948 490.89 457.161Z" fill="white"/>
<path fill-rule="evenodd" clip-rule="evenodd" d="M588.497 458.753C587.539 458.332 586.4 458.758 586.044 459.742C585.393 461.536 584.52 464.227 584.52 465.744C584.52 468.161 585.325 472.799 585.325 472.799C588.13 472.799 635.735 472.799 635.735 472.799C635.735 472.799 637.7 466.303 633.466 465.785C629.233 465.267 626.433 464.85 626.433 464.85L603.003 454.405C602.543 454.2 602.004 454.415 601.812 454.88L600.306 458.534C600.306 458.534 596.387 460.362 593.937 460.362C592.445 460.362 590.102 459.459 588.497 458.753Z" fill="white"/>
<path fill-rule="evenodd" clip-rule="evenodd" d="M546.982 454.417L602.22 448.422L561.282 259.191H511.807L546.982 454.417Z" fill="#D98B9F"/>
<path d="M531.788 446.88H483.525L500.933 259.191H556.633L531.788 446.88Z" fill="#FFA3BB"/>
<path fill-rule="evenodd" clip-rule="evenodd" d="M515.783 166.496C515.992 165.817 516.204 165.135 516.419 164.452L517.212 164.825C517.336 164.698 517.461 164.573 517.587 164.452L542.604 168.32C542.604 179.635 549.845 190.365 556.363 200.024C557.949 202.374 559.493 204.661 560.879 206.877C562.694 209.78 564.742 212.735 566.841 215.763C577.472 231.099 589.403 248.309 578.915 270.151C561.941 305.502 490.488 281.633 490.488 281.633C490.488 275.507 492.918 269.366 495.47 262.916C498.206 256.001 501.082 248.73 501.254 240.744C501.57 226.051 504.318 181.535 515.783 166.496Z" fill="#4A2C00"/>
<path fill-rule="evenodd" clip-rule="evenodd" d="M546.859 263.469C548.532 254.835 549.617 249.071 550.115 246.177C563.443 261.237 571.142 268.855 573.213 269.03C577.109 269.358 579.987 265.904 580.807 266.875C582.162 270.897 578.336 280.964 571.022 282.428C567.53 283.127 562.125 275.925 559.899 273.374C559.023 272.37 554.676 269.068 546.859 263.469ZM569.88 217.436C573.335 217.436 575.191 218.864 577.234 221.746C579.276 224.628 581.209 238.219 577.93 238.219C574.65 238.219 560.909 232.965 560.909 229.433C560.909 225.901 570.285 224.405 570.285 221.746C570.285 219.087 566.425 217.436 569.88 217.436Z" fill="#B28B67"/>
<path fill-rule="evenodd" clip-rule="evenodd" d="M523.057 183.171C513.24 224.103 517.239 258.625 554.551 289.939C554.112 291.512 553.849 292.452 553.849 292.452C510.053 261.842 510.032 224.748 523.057 183.171Z" fill="black" fill-opacity="0.2"/>
<path fill-rule="evenodd" clip-rule="evenodd" d="M139.369 158.414C145.157 161.902 150.843 163.588 153.513 162.9C160.206 161.174 160.822 136.687 155.643 127.034C150.463 117.38 123.838 113.172 122.496 132.299C122.03 138.938 124.818 144.862 128.936 149.696L121.552 184.115H143.002L139.369 158.414Z" fill="#F2E3B5"/>
<path fill-rule="evenodd" clip-rule="evenodd" d="M129.595 127.808C141.973 127.896 150.585 127.375 155.514 126.02C155.289 121.825 150.928 117.083 139.426 117.083C126.63 117.083 119.764 124.542 119.764 133.17C119.764 141.054 124.839 150.655 128.701 151.046C129.702 150.827 130.557 149.621 131.407 147.959C129.816 147.185 128.702 145.361 128.702 143.002C128.702 140.734 130.702 138.533 133.17 138.533C134.071 138.533 134.909 138.826 135.61 139.308C137.232 136.696 139.264 134.746 142.108 134.958L140.32 129.595L129.595 128.702V127.808Z" fill="#03030E"/>
<path fill-rule="evenodd" clip-rule="evenodd" d="M114.401 258.297L146.805 372.007L170.446 455.818H187.69L162.567 258.297H114.401Z" fill="#03030E"/>
<path fill-rule="evenodd" clip-rule="evenodd" d="M105.736 258.297C104.986 316.904 102.43 348.871 101.644 354.195C100.857 359.52 88.9579 393.394 65.9473 455.818H83.8102C113.104 395.933 129.457 362.059 132.869 354.195C136.28 346.332 146.808 314.366 162.664 258.297H105.736Z" fill="#2F3676"/>
<path fill-rule="evenodd" clip-rule="evenodd" d="M69.2215 457.859C68.2637 457.438 67.1254 457.865 66.7686 458.848C66.1178 460.643 65.2446 463.333 65.2446 464.85C65.2446 467.267 66.0501 471.906 66.0501 471.906C68.8547 471.906 116.46 471.906 116.46 471.906C116.46 471.906 118.425 465.41 114.191 464.892C109.958 464.374 107.158 463.956 107.158 463.956L83.7276 453.511C83.2677 453.306 82.7293 453.521 82.5374 453.987L81.0313 457.64C81.0313 457.64 77.1122 459.469 74.6619 459.469C73.1702 459.469 70.8268 458.566 69.2215 457.859Z" fill="#E4E4E4"/>
<path fill-rule="evenodd" clip-rule="evenodd" d="M172.898 457.859C171.94 457.438 170.802 457.865 170.445 458.848C169.794 460.643 168.921 463.333 168.921 464.85C168.921 467.267 169.726 471.906 169.726 471.906C172.531 471.906 220.136 471.906 220.136 471.906C220.136 471.906 222.101 465.41 217.868 464.892C213.634 464.374 210.834 463.956 210.834 463.956L187.404 453.511C186.944 453.306 186.406 453.521 186.214 453.987L184.708 457.64C184.708 457.64 180.788 459.469 178.338 459.469C176.846 459.469 174.503 458.566 172.898 457.859Z" fill="#E4E4E4"/>
<path fill-rule="evenodd" clip-rule="evenodd" d="M229.012 219.601L196.627 233.823L206.968 247.07L231.223 228.475C243.337 226.249 248.956 224.338 248.078 222.74C247.338 221.392 245.96 221.316 244.692 221.246C243.704 221.192 242.781 221.141 242.277 220.495C241.127 219.021 243.967 214.468 246.846 210.262C249.726 206.056 247.027 206.208 245.447 206.711C240.164 209.651 234.686 213.947 229.012 219.601ZM84.0135 241.374L65.6988 237.74C53.2778 270.478 45.8728 288.418 43.4835 291.561C41.7315 293.865 30.9265 299.8 23.613 302.97C20.6775 304.243 21.3077 306.723 22.1687 307.517C27.5995 312.523 32.6483 310.768 38.1442 308.858C39.7353 308.305 41.3638 307.739 43.0499 307.321C47.4141 306.237 48.7422 308.481 49.9973 310.602C51.1085 312.48 52.1626 314.261 55.2159 313.55C55.077 312.951 54.9064 312.28 54.7223 311.555C53.532 306.871 51.7766 299.964 54.3809 295.951C55.7174 293.892 65.5949 275.699 84.0135 241.374Z" fill="#F2E3B5"/>
<g filter="url(#filter0_d_4962_5540)">
<path fill-rule="evenodd" clip-rule="evenodd" d="M133.792 169.218L141.52 167.892C158.353 184.221 165.223 223.451 176.441 228.644C187.047 233.554 202.083 228.803 219.954 222.388L225.428 234.616C209.189 252.184 174.595 267.026 160.573 258.553C138.154 245.006 132.979 196.622 133.792 169.218Z" fill="#D98B9F"/>
</g>
<path fill-rule="evenodd" clip-rule="evenodd" d="M100.101 266.341C100.101 266.341 146.583 266.341 168.484 266.341C171.609 266.341 171.02 261.829 170.568 259.552C165.355 233.275 145.005 204.95 145.005 167.545L125.28 164.452C108.965 190.691 103.323 222.997 100.101 266.341Z" fill="#FEFEFE"/>
<path fill-rule="evenodd" clip-rule="evenodd" d="M146.463 285.11H84.9072C85.8811 270.419 89.0036 254.884 93.2805 239.737C79.3403 264.882 67.6229 282.986 58.1281 294.047L43.7944 291.24C53.0275 233.978 79.7653 191.716 124.008 164.452L124.233 164.452H131.818C131.818 164.452 158.379 254.995 146.463 285.11Z" fill="#FFA3BB"/>
<path fill-rule="evenodd" clip-rule="evenodd" d="M271.645 158.414C277.433 161.902 283.119 163.588 285.789 162.9C292.482 161.174 293.098 136.687 287.918 127.034C282.739 117.38 256.114 113.172 254.772 132.299C254.306 138.938 257.094 144.862 261.212 149.696L253.828 184.115H275.278L271.645 158.414Z" fill="#DEB793"/>
<path fill-rule="evenodd" clip-rule="evenodd" d="M284.363 116.433C288.891 116.98 292.619 117.43 294.25 116.391C295.414 123.688 291.659 129.571 278.459 128.434C275.548 130.062 273.476 133.113 270.983 137.115C270.375 136.876 269.714 136.745 269.022 136.745C266.06 136.745 263.659 139.146 263.659 142.108C263.659 143.611 264.278 144.97 265.275 145.944C264.034 147.696 262.643 149.525 261.05 151.413C255.103 147.845 250.68 137.447 256.358 127.41C259.747 113.461 274.106 115.195 284.363 116.433Z" fill="#03030E"/>
<path fill-rule="evenodd" clip-rule="evenodd" d="M246.678 258.297L279.417 371.113L294.816 455.818H310.272L294.843 258.297H246.678Z" fill="#CEA987"/>
<path fill-rule="evenodd" clip-rule="evenodd" d="M231.964 258.297C234.249 316.904 233.348 348.871 232.837 354.195C232.325 359.52 229.423 395.182 209.644 457.605H225.719C251.913 397.721 261.057 362.059 264.062 354.195C267.066 346.332 275.939 314.366 288.893 258.297H231.964Z" fill="#DEB793"/>
<path fill-rule="evenodd" clip-rule="evenodd" d="M245.975 258.297C254.491 297.117 269.22 359.085 290.162 444.199H312.768C314.438 356.837 307.335 299.339 295.034 258.297H245.975Z" fill="#E7A543"/>
<path fill-rule="evenodd" clip-rule="evenodd" d="M231.85 258.297C234.088 316.904 228.29 374.644 210.329 445.111H234.448C260.691 386.12 279.5 328.666 292.354 258.297H231.85Z" fill="#FFB648"/>
<path fill-rule="evenodd" clip-rule="evenodd" d="M207.352 469.224L208.17 456.041C208.206 455.469 208.762 455.077 209.323 455.196C217.069 456.842 227.753 453.137 227.753 453.137C238.506 460.753 254.007 464.249 259.466 465.295C260.522 465.498 261.199 466.563 260.906 467.598L259.685 471.906H227.753H209.126L207.352 469.224Z" fill="#03030E"/>
<path fill-rule="evenodd" clip-rule="evenodd" d="M291.366 469.224L292.183 456.041C292.219 455.469 292.776 455.077 293.336 455.196C301.083 456.842 311.766 453.137 311.766 453.137C322.519 460.753 338.021 464.249 343.479 465.295C344.535 465.498 345.213 466.563 344.92 467.598L343.698 471.906H311.766H293.14L291.366 469.224Z" fill="#03030E"/>
<path fill-rule="evenodd" clip-rule="evenodd" d="M198.003 231.819C198.003 231.819 176.915 283.192 173.413 287.97C171.701 290.306 160.998 296.433 153.739 299.731C150.825 301.055 151.499 303.526 152.374 304.305C159.491 310.64 165.776 305.741 173.255 303.744C181.448 301.556 179.055 311.391 185.531 309.764C184.417 305.308 181.462 296.86 184.389 292.172C186.34 289.047 213.743 234.669 213.743 234.669L198.003 231.819Z" fill="#DEB793"/>
<path fill-rule="evenodd" clip-rule="evenodd" d="M304.333 233.817C304.333 233.817 325.421 285.19 328.923 289.968C330.635 292.304 341.338 298.431 348.597 301.729C351.51 303.053 350.837 305.524 349.962 306.303C342.845 312.638 336.56 307.739 329.081 305.742C320.887 303.554 323.281 313.389 316.805 311.762C317.919 307.306 320.874 298.858 317.947 294.17C315.996 291.045 288.593 236.667 288.593 236.667L304.333 233.817Z" fill="#DEB793"/>
<path fill-rule="evenodd" clip-rule="evenodd" d="M273.788 166.239C273.788 166.239 304.513 197.88 326.669 280.194L309.789 285.161C283.617 216.176 273.788 196.18 273.788 196.18L268.128 172.049L273.788 166.239Z" fill="#E7A543"/>
<path fill-rule="evenodd" clip-rule="evenodd" d="M232.378 266.26C232.378 266.26 274.525 270.89 298.727 266.26C300.726 265.877 300.639 257.26 299.712 254.907C285.275 218.258 274.385 192.051 274.385 166.596C270.411 168.671 261.872 166.596 261.872 166.596C244.074 192.828 235.893 222.928 232.378 266.26Z" fill="#03030E"/>
<path fill-rule="evenodd" clip-rule="evenodd" d="M187.585 366.442C209.362 357.743 231.491 360.614 251.426 363.201C265.238 364.993 277.997 366.648 288.855 364.224C297.686 318.821 285.435 268.644 275.398 227.537C269.123 201.834 263.713 179.678 264.865 164.452H256.091L254.7 164.452C254.7 164.452 203.761 195.716 178.924 266.703C176.979 267.062 175.134 267.689 173.395 268.589C171.75 269.442 174.053 274.555 176.007 275.632C175.302 277.952 174.626 280.311 173.98 282.708L190.861 287.676C203.087 255.448 217.577 236.856 229.548 226.192C229.624 229.772 230 233.373 230.378 236.998C231.067 243.599 231.764 250.275 230.672 257.031C230.459 258.353 230.2 259.685 229.9 261.026C228.184 261.229 226.731 262.532 226.415 264.322L225.95 266.962C225.705 268.349 226.203 269.695 227.157 270.593C222.998 282.706 216.316 295.374 209.615 308.078C199.044 328.121 188.425 348.254 187.585 366.442Z" fill="#FFB648"/>
<path fill-rule="evenodd" clip-rule="evenodd" d="M271.045 165.452L265.886 181.317L276.276 193.211L266.886 202.557L289.602 241.452L261.823 202.635L271.045 193.211L261.823 182.7L271.045 165.452Z" fill="black" fill-opacity="0.1"/>
<path fill-rule="evenodd" clip-rule="evenodd" d="M282.939 256.452C285.149 256.452 286.939 254.661 286.939 252.452C286.939 250.243 285.149 248.452 282.939 248.452C280.73 248.452 278.939 250.243 278.939 252.452C278.939 254.661 280.73 256.452 282.939 256.452ZM287.939 279.452C290.149 279.452 291.939 277.661 291.939 275.452C291.939 273.243 290.149 271.452 287.939 271.452C285.73 271.452 283.939 273.243 283.939 275.452C283.939 277.661 285.73 279.452 287.939 279.452ZM292.939 298.452C292.939 300.661 291.149 302.452 288.939 302.452C286.73 302.452 284.939 300.661 284.939 298.452C284.939 296.243 286.73 294.452 288.939 294.452C291.149 294.452 292.939 296.243 292.939 298.452Z" fill="black" fill-opacity="0.4"/>
<path fill-rule="evenodd" clip-rule="evenodd" d="M920.631 67.2505C914.843 70.7389 909.157 72.4243 906.487 71.7363C899.794 70.0109 899.178 45.5237 904.357 35.8701C909.537 26.2165 936.162 22.0088 937.504 41.1357C937.97 47.7741 935.182 53.6985 931.064 58.5326L938.448 92.9511H916.998L920.631 67.2505Z" fill="#B28B67"/>
<path fill-rule="evenodd" clip-rule="evenodd" d="M901.804 26.8128C901.804 31.5866 905.547 35.4862 910.258 35.7376C912.953 36.5691 916.416 37.1797 920.255 37.4371C919.883 38.8391 919.68 40.4318 919.68 42.2316C919.68 43.8208 919.855 45.5063 920.178 47.2177C921.011 46.2278 922.125 45.5818 923.255 45.5818C926.417 45.5818 928.618 48.1828 928.618 50.9444C928.618 54.4492 926.594 56.9848 923.641 57.1876C926.3 62.2933 929.979 66.1383 933.655 66.1383C940.636 66.1383 945.599 56.805 945.599 46.7701C945.599 46.4176 945.592 46.0674 945.578 45.7199C947.942 47.3416 950.131 49.4672 952.337 51.6082C957.023 56.1574 961.781 60.7757 968.425 60.7757C981.718 60.7757 986.998 33.9629 968.425 33.9629C955.794 33.9629 949.581 35.8045 944.227 38.5277C943.171 35.55 941.56 33.0466 939.59 31.2985C939.117 30.7662 938.392 30.2569 937.457 29.7846C936.883 29.4701 936.289 29.2141 935.678 29.0216C932.448 27.8353 927.772 26.9985 922.548 26.8161C921.573 26.7821 920.614 26.7721 919.68 26.7847C919.664 21.8615 915.669 17.8752 910.742 17.8752C905.806 17.8752 901.804 21.8767 901.804 26.8128Z" fill="#03030E"/>
<path fill-rule="evenodd" clip-rule="evenodd" d="M945.599 167.133L913.195 280.844L889.554 364.654H872.31L897.433 167.133H945.599Z" fill="#03030E"/>
<path fill-rule="evenodd" clip-rule="evenodd" d="M954.264 167.133C955.014 225.741 957.57 257.707 958.356 263.032C959.143 268.357 971.042 302.231 994.053 364.654H976.19C946.896 304.77 930.543 270.895 927.131 263.032C923.72 255.168 913.192 223.202 897.336 167.133H954.264Z" fill="#2F3676"/>
<path fill-rule="evenodd" clip-rule="evenodd" d="M995.649 380.742L994.756 361.973L975.987 361.973C962.637 371.358 941.13 377.167 941.13 377.167V380.742H975.093L986.712 378.954V380.742H995.649Z" fill="#03030E"/>
<path fill-rule="evenodd" clip-rule="evenodd" d="M891.973 380.742L891.079 361.973L872.31 361.973C858.961 371.358 837.454 377.167 837.454 377.167V380.742H871.417L883.036 378.954V380.742H891.973Z" fill="#03030E"/>
<path fill-rule="evenodd" clip-rule="evenodd" d="M867.531 94.4613L898.553 111.452L887.097 123.748L864.555 103.109C852.681 99.8362 847.25 97.4421 848.264 95.9267C849.119 94.6488 850.498 94.6932 851.767 94.7341C852.757 94.7659 853.68 94.7956 854.238 94.1965C855.513 92.8284 853.081 88.0446 850.579 83.6036C848.077 79.1626 850.752 79.5492 852.282 80.188C857.289 83.5774 862.372 88.3352 867.531 94.4613ZM836.34 118.302L849.966 125.787L849.19 139.462C849.19 139.462 840.365 133.092 832.772 130.975C823.09 128.276 819.173 126.215 814.443 120.187C811.911 116.961 809.763 110.478 812.172 108.366C813.097 107.556 816.54 109.47 820.054 111.422C822.732 112.91 825.45 114.421 827.125 114.766C829.38 115.23 829.116 112.307 828.905 109.972C828.753 108.296 828.629 106.923 829.483 107.32C833.472 107.388 836.34 118.302 836.34 118.302Z" fill="#997659"/>
<path fill-rule="evenodd" clip-rule="evenodd" d="M913.661 107.667C902.795 107.552 888.305 105.257 872.844 95.4435L866.773 108.984C877.437 119.568 892.432 128.263 905.544 127.895C915.876 127.605 921.157 115.107 913.661 107.667Z" fill="#3666F5"/>
<path fill-rule="evenodd" clip-rule="evenodd" d="M942.967 200.433C953.297 199.087 962.789 197.849 968.414 198.956C974.725 178.46 969.485 165.555 964.647 153.642C961.731 146.461 958.962 139.642 958.956 131.737C958.938 108.719 940.456 73.2883 937.736 73.2883H936.956H915.405H912.938C911.829 87.5325 907.097 102.955 902.334 118.477C901.222 122.101 900.108 125.731 899.039 129.353C881.016 133.444 840.996 119.204 840.996 119.204C840.996 119.204 830.894 140.105 831.656 149.005C854.95 161.173 874.914 166.598 891.363 166.956C890.84 176.716 892.028 186.002 896.018 194.488C901.366 205.857 923.634 202.954 942.967 200.433Z" fill="#3666F5"/>
<line y1="-1.06851" x2="43.6889" y2="-1.06851" transform="matrix(0.951057 0.309017 -0.234567 0.9721 833.364 31.2598)" stroke="black" stroke-width="2.13702"/>
<line y1="-1.06851" x2="43.6889" y2="-1.06851" transform="matrix(0.951057 -0.309017 0.381618 0.92432 833.364 86.0422)" stroke="black" stroke-width="2.13702"/>
<line y1="-1.06851" x2="42.9991" y2="-1.06851" transform="matrix(1 0 0.0110704 0.999939 831.197 58.651)" stroke="black" stroke-width="2.13702"/>
<rect x="724.84" y="109.327" width="8.2088" height="99.767" transform="rotate(-43.5 724.84 109.327)" fill="#4A2C00"/>
<rect x="791.519" y="179.592" width="11.4673" height="2.89895" transform="rotate(-43.5 791.519 179.592)" fill="#4A2C00"/>
<rect x="753.44" y="138.031" width="8.93761" height="243.103" fill="#4A2C00"/>
<rect x="744.502" y="376.665" width="26.8128" height="4.4688" fill="#4A2C00"/>
<rect x="724.84" y="380.742" width="286.003" height="91.1636" fill="#4A2C00"/>
<defs>
<filter id="filter0_d_4962_5540" x="129.712" y="167.892" width="99.7155" height="101.112" filterUnits="userSpaceOnUse" color-interpolation-filters="sRGB">
<feFlood flood-opacity="0" result="BackgroundImageFix"/>
<feColorMatrix in="SourceAlpha" type="matrix" values="0 0 0 0 0 0 0 0 0 0 0 0 0 0 0 0 0 0 127 0" result="hardAlpha"/>
<feOffset dy="4"/>
<feGaussianBlur stdDeviation="2"/>
<feComposite in2="hardAlpha" operator="out"/>
<feColorMatrix type="matrix" values="0 0 0 0 0 0 0 0 0 0 0 0 0 0 0 0 0 0 0.25 0"/>
<feBlend mode="normal" in2="BackgroundImageFix" result="effect1_dropShadow_4962_5540"/>
<feBlend mode="normal" in="SourceGraphic" in2="effect1_dropShadow_4962_5540" result="shape"/>
</filter>
</defs>
</svg>
