<svg width="111" height="145" viewBox="0 0 111 145" fill="none" xmlns="http://www.w3.org/2000/svg">
<path fill-rule="evenodd" clip-rule="evenodd" d="M53.0093 25.5786C55.2107 26.9055 57.3736 27.5466 58.3889 27.2849C60.9348 26.6286 61.1689 17.3149 59.199 13.6431C57.2291 9.97134 47.1021 8.37094 46.5917 15.6459C46.4145 18.1708 47.4747 20.4241 49.0411 22.2628L46.2324 35.354H54.3911L53.0093 25.5786Z" fill="#B28B67"/>
<path fill-rule="evenodd" clip-rule="evenodd" d="M62.8138 8.55319C62.6449 7.95933 62.1905 7.45087 61.578 7.30002C61.4295 7.26343 61.2762 7.24865 61.1233 7.25481C61.0685 7.257 61.0532 7.2728 61.0275 7.23447C61.0085 7.20605 61.0081 7.13662 61.0003 7.10322C60.9759 6.99937 60.9455 6.89681 60.908 6.79691C60.7798 6.45616 60.5645 6.1546 60.3049 5.90057C59.8193 5.42532 59.1633 5.09733 58.4816 5.03799C58.1086 5.00553 57.7382 5.06614 57.3855 5.18749C57.2029 5.25032 57.0259 5.32854 56.8534 5.41503C56.8015 5.44106 56.6331 5.56856 56.581 5.5603C56.5234 5.55119 56.4078 5.40817 56.361 5.37228C55.7826 4.92853 55.0684 4.75406 54.3479 4.7594C53.5348 4.7654 52.7518 4.80603 52.0736 5.30173C51.9301 5.40668 51.7933 5.52158 51.6632 5.64256C51.5946 5.70625 51.5282 5.77234 51.4649 5.84116C51.4267 5.88269 51.3895 5.92515 51.3537 5.96875C51.2929 6.04276 51.3026 6.06707 51.2176 6.01543C50.8912 5.81714 50.513 5.7244 50.132 5.77122C49.9058 5.79904 49.6857 5.86695 49.4768 5.95634C49.4056 5.98676 49.2409 6.10814 49.1651 6.10933C49.0899 6.11049 48.9275 5.99797 48.85 5.96937C48.4314 5.81486 47.9803 5.77678 47.5404 5.84817C47.0866 5.92184 46.6408 6.1029 46.2563 6.35309C46.0714 6.47344 45.91 6.60679 45.7804 6.78574C45.7245 6.86301 45.6739 6.94474 45.6105 7.01638C45.5733 7.05833 45.4998 7.10137 45.4799 7.15446C45.4918 7.12267 44.9836 6.92675 44.9356 6.91422C44.6801 6.8475 44.42 6.86102 44.1698 6.94336C43.6993 7.09818 43.2948 7.44537 42.9622 7.80134C42.7915 7.98418 42.642 8.18629 42.5151 8.40161C42.4543 8.50475 42.3987 8.61084 42.3479 8.71918C42.3232 8.77166 42.3069 8.83732 42.2744 8.8846C42.2325 8.94553 42.2044 8.94669 42.1286 8.97326C41.7436 9.10814 41.3926 9.33646 41.1253 9.64496C40.855 9.95708 40.6795 10.3414 40.606 10.7462C40.6017 10.7701 40.5991 10.8689 40.5851 10.8818C40.566 10.8995 40.4886 10.8917 40.4593 10.8951C40.3578 10.907 40.2571 10.9247 40.1578 10.9483C39.9746 10.9916 39.7963 11.0554 39.6276 11.1389C38.9702 11.4642 38.5 12.074 38.2699 12.7602C38.0285 13.4804 38.0327 14.3054 38.3213 15.0121C38.3679 15.1263 38.4234 15.2371 38.4885 15.3419C38.5285 15.4062 38.5415 15.4064 38.5155 15.4739C38.4865 15.549 38.4336 15.622 38.3993 15.6954C38.2871 15.9348 38.2087 16.1888 38.1592 16.4482C38.0779 16.8738 38.0376 17.321 38.1178 17.7497C38.155 17.9488 38.2199 18.1435 38.3188 18.3208C38.3693 18.4112 38.4283 18.4969 38.4949 18.5763C38.5295 18.6175 38.5663 18.6568 38.6047 18.6945C38.6267 18.716 38.6555 18.7348 38.6742 18.7589C38.7198 18.8175 38.7294 18.7693 38.7059 18.8554C38.673 18.9757 38.5984 19.0945 38.5527 19.2116C38.5057 19.3323 38.4631 19.4546 38.4242 19.5782C38.3455 19.8283 38.2788 20.083 38.2372 20.3421C38.1572 20.8395 38.1712 21.3696 38.4065 21.8261C38.5071 22.0213 38.6514 22.1926 38.8265 22.3259C38.9121 22.3911 39.0049 22.4473 39.1023 22.4934C39.1523 22.5172 39.2162 22.5274 39.239 22.5757C39.2635 22.6278 39.2271 22.7311 39.2188 22.7892C39.1464 23.2951 39.1101 23.8263 39.2605 24.3221C39.3991 24.7788 39.704 25.182 40.1 25.4489C40.8681 25.9667 41.9036 25.9375 42.7107 25.523C42.9211 25.4149 43.1179 25.2807 43.2935 25.1225C43.7406 25.7243 44.6606 25.7053 45.3141 25.5338C46.1282 25.3201 46.7814 24.7541 47.1578 24.0103C47.6724 24.6368 48.7525 24.4335 49.1094 23.7539C49.1967 23.5875 49.2486 23.4042 49.2741 23.2187C49.2875 23.1211 49.2789 23.0227 49.289 22.9259C49.3019 22.8026 49.3843 22.6828 49.4316 22.5635C49.5238 22.3313 49.5811 22.0914 49.5835 21.841C49.5848 21.7103 49.5683 21.5828 49.5558 21.4531C49.5446 21.3364 49.577 21.2276 49.5954 21.1123C49.3866 21.1467 49.1323 21.0904 48.9355 21.0299C48.7425 20.9705 48.5617 20.814 48.4254 20.6711C48.1091 20.3392 47.9158 19.9042 47.7836 19.4713C47.4935 18.5211 47.6124 17.381 48.5682 16.8595C49.0134 16.6166 50.3473 16.6174 50.8776 16.7374C51.4352 16.8637 52.0673 18.094 52.0984 18.2097C52.1177 18.2812 52.108 18.3698 52.1738 18.4175C52.3183 18.5224 52.5566 18.3404 52.6631 18.2506C52.8471 18.0956 52.9782 17.8894 53.0919 17.6803C53.3394 17.2249 53.539 16.7365 53.68 16.2379C53.7887 15.8535 53.8582 15.4571 54.0002 15.0826C54.1416 14.7098 54.3644 14.3767 54.7109 14.1655C55.0878 13.9358 55.5199 13.8148 55.9336 13.6705C56.3438 13.5274 56.7469 13.3526 57.0648 13.049C57.1347 12.9823 57.2026 12.9114 57.2589 12.8328C57.3033 12.7707 57.3472 12.652 57.4149 12.6126C57.5201 12.5514 57.6736 12.7106 57.7646 12.7683C58.2135 13.0534 58.588 13.451 58.89 13.8854C59.1904 14.3174 59.4368 14.733 59.6371 15.2154C59.7857 15.5732 59.8784 16.0313 60.1397 16.3245C60.2563 16.4554 61.1233 16.5346 61.4042 16.4203C61.685 16.306 61.9998 16.0093 62.094 15.8233C62.1905 15.6329 62.2136 15.4238 62.1723 15.2154C62.1481 15.0928 62.0986 14.9783 62.0715 14.8579C62.0487 14.7567 62.028 14.6611 61.9787 14.5684C61.8854 14.3928 61.726 14.2666 61.5337 14.2138C61.7338 14.0293 61.8996 13.8087 62.0143 13.562C62.1335 13.3057 62.2345 12.994 62.2632 12.7127C62.2865 12.4842 62.2505 12.2475 62.1255 12.0512C61.9943 11.8452 61.7618 11.7108 61.5607 11.5824C61.8679 11.342 62.1308 11.0497 62.347 10.7261C62.7673 10.0968 63.0273 9.30348 62.8138 8.55319Z" fill="#191847"/>
<path fill-rule="evenodd" clip-rule="evenodd" d="M83.5293 96.4009C84.7937 100.83 87.9436 109.224 92.2992 118.864L96.4382 117.657C92.8172 95.4737 89.8036 80.7876 88.0775 76.3177C86.937 73.3644 78.3086 73.7104 79.3012 79.6528C79.7174 82.1448 81.3644 88.8176 83.5293 96.4009ZM66.5174 80.6891C59.7678 82.0875 45.773 87.031 41.7767 88.6106C39.2652 89.6033 40.8843 92.9702 43.0269 92.6756C43.3898 92.6257 44.6734 92.4821 46.5888 92.2678C52.741 91.5796 65.4107 90.1622 75.0199 88.7792C80.0796 88.051 77.3578 78.5736 72.1043 79.5765C70.3369 79.9139 68.457 80.2873 66.5174 80.6891Z" fill="#B28B67"/>
<path fill-rule="evenodd" clip-rule="evenodd" d="M88.3405 73.8145C87.6504 71.5626 56.2817 63.5693 56.2817 63.5693H53.7109V65.9648L75.3272 76.9687C75.2984 77.3238 75.316 77.6991 75.3858 78.0949C75.2297 86.2524 78.721 92.3465 82.1777 98.3802C84.4381 102.326 86.6837 106.246 87.8849 110.7L95.8265 109.515C95.5952 108.923 95.2294 106.256 94.7292 102.608C93.4681 93.4114 91.3529 77.986 88.3854 73.9048C88.3749 73.8904 88.3643 73.8762 88.3535 73.862C88.3497 73.8461 88.3454 73.8303 88.3405 73.8145Z" fill="#1F28CF"/>
<path fill-rule="evenodd" clip-rule="evenodd" d="M55.5074 83.5038C53.5296 83.1078 51.7083 82.7545 50.1498 82.4812C40.0829 80.7154 37.1474 75.3267 38.883 63.5693H57.4311C60.4609 64.4397 76.2069 71.0429 84.3767 74.5551C89.7837 76.8795 88.0793 85.259 85.0173 87.4399C85.0007 87.5737 84.9456 87.6646 84.8475 87.7052C73.2381 92.5169 63.3381 92.1579 56.9809 91.9274C54.3182 91.8308 52.2771 91.7568 50.9921 92.0946L48.9786 85.7432L55.5074 83.5038Z" fill="#2B44FF"/>
<path fill-rule="evenodd" clip-rule="evenodd" d="M43.8962 88.2817C43.8806 87.884 43.545 87.566 43.1492 87.6081C42.4272 87.6848 41.3619 87.8349 40.8434 88.0878C40.0169 88.4909 38.5656 89.5396 38.5656 89.5396C39.0333 90.4983 46.9707 106.773 46.9707 106.773C46.9707 106.773 49.5191 106.361 48.9903 104.828C48.4615 103.294 48.1373 102.267 48.1373 102.267L47.8014 92.5157C47.7948 92.3243 47.6315 92.1761 47.4404 92.1882L45.9403 92.2824C45.9403 92.2824 44.6618 91.2475 44.2532 90.4099C44.0045 89.8999 43.9224 88.9483 43.8962 88.2817Z" fill="#E4E4E4"/>
<path fill-rule="evenodd" clip-rule="evenodd" d="M91.2568 116.697C90.8924 116.537 90.4595 116.699 90.3238 117.073C90.0763 117.756 89.7441 118.779 89.7441 119.356C89.7441 120.276 90.0505 122.04 90.0505 122.04C91.1172 122.04 109.224 122.04 109.224 122.04C109.224 122.04 109.971 119.569 108.361 119.372C106.751 119.175 105.686 119.016 105.686 119.016L96.7742 115.043C96.5992 114.965 96.3945 115.047 96.3215 115.224L95.7486 116.614C95.7486 116.614 94.258 117.309 93.326 117.309C92.7586 117.309 91.8673 116.966 91.2568 116.697Z" fill="#E4E4E4"/>
<path fill-rule="evenodd" clip-rule="evenodd" d="M83.0722 67.5662L73.4423 58.1719L70.2438 63.7061L80.2577 69.61C82.7685 73.5653 84.2432 75.2743 84.6817 74.737C85.0514 74.284 84.882 73.7875 84.7259 73.3301C84.6043 72.9738 84.4908 72.6413 84.6466 72.3717C85.0025 71.7559 87.013 72.1085 88.9066 72.5248C90.8001 72.941 90.362 72.0108 89.9595 71.5254C88.1699 70.0811 85.8741 68.7614 83.0722 67.5662ZM26.3106 81.2152C27.3067 79.1942 30.6992 59.4967 30.6992 59.4967L37.8031 59.5247C37.8031 59.5247 31.2236 80.7645 30.6992 82.0641C30.018 83.7524 31.1751 86.2052 31.9598 87.8685C32.0812 88.1258 32.1936 88.3642 32.289 88.578C31.2003 89.0651 30.6773 88.4763 30.1259 87.8555C29.5032 87.1543 28.8442 86.4123 27.293 87.134C26.6937 87.4128 26.1266 87.7425 25.5725 88.0645C23.6586 89.177 21.9004 90.199 19.5087 88.7232C19.1295 88.4892 18.714 87.6083 19.7179 86.9199C22.2191 85.2048 25.8235 82.2032 26.3106 81.2152Z" fill="#B28B67"/>
<path fill-rule="evenodd" clip-rule="evenodd" d="M50.887 29.6877L53.8266 29.1835C58.8875 41.8261 67.7233 53.3135 80.3341 63.6457L70.8047 75.2229C58.1955 60.5112 50.4231 45.3329 50.887 29.6877Z" fill="#191847"/>
<path fill-rule="evenodd" clip-rule="evenodd" d="M38.0742 66.629H64.2499C64.2499 66.629 55.1534 44.5115 55.1534 29.0519L47.2575 27.8755C41.0521 37.8557 39.2997 50.1433 38.0742 66.629Z" fill="#DDE3E9"/>
<path fill-rule="evenodd" clip-rule="evenodd" d="M47.0899 27.8812L47.0836 27.8756C47.0836 27.8756 29.0384 45.5513 26.1758 77.8473H38.9341C38.8303 76.4247 38.7658 75.0195 38.7366 73.6339H55.8702C55.8702 73.6339 52.6372 43.4144 52.3345 33.4427L50.4265 27.9903C50.4265 27.9903 48.5336 27.9073 47.6084 27.8755H47.093C47.092 27.8774 47.0909 27.8793 47.0899 27.8812Z" fill="#2F3676"/>
<path fill-rule="evenodd" clip-rule="evenodd" d="M38.74 73.7675C38.6032 67.7336 39.1385 62.068 40.0315 56.9409C40.4985 63.0248 41.4746 70.3454 43.5133 73.7675H38.74Z" fill="black" fill-opacity="0.1"/>
<path fill-rule="evenodd" clip-rule="evenodd" d="M42.5312 63.2293L50.9921 59.2959V63.2293H42.5312Z" fill="white" fill-opacity="0.2"/>
</svg>
