<svg width="1920" height="379" viewBox="0 0 1920 379" fill="none" xmlns="http://www.w3.org/2000/svg">
<g id="layered-waves-haikei 1" clip-path="url(#clip0_3359_4421)">
<path id="Vector" d="M0 176.679L40.1067 173.479C80.4267 170.279 160.64 163.879 240.64 166.012C320.64 168.146 400.427 178.812 480.427 177.746C560.427 176.679 640.64 163.879 720.64 155.986C800.64 148.306 880.427 145.319 960.427 146.812C1040.43 148.306 1120.64 153.852 1200.64 146.386C1280.64 138.919 1360.43 118.439 1440.43 106.919C1520.43 95.6124 1600.64 93.4791 1680.64 94.5457C1760.64 95.6124 1840.43 99.8791 1880.11 102.012L1920 104.146V381.479H1880.11C1840.43 381.479 1760.64 381.479 1680.64 381.479C1600.64 381.479 1520.43 381.479 1440.43 381.479C1360.43 381.479 1280.64 381.479 1200.64 381.479C1120.64 381.479 1040.43 381.479 960.427 381.479C880.427 381.479 800.64 381.479 720.64 381.479C640.64 381.479 560.427 381.479 480.427 381.479C400.427 381.479 320.64 381.479 240.64 381.479C160.64 381.479 80.4267 381.479 40.1067 381.479H0V176.679Z" fill="#DBE3FF"/>
<path id="Vector_2" d="M0 227.879L40.1067 240.039C80.4267 251.986 160.64 276.306 240.64 273.319C320.64 270.546 400.427 240.679 480.427 234.706C560.427 228.519 640.64 246.439 720.64 255.613C800.64 264.786 880.427 265.639 960.427 270.119C1040.43 274.812 1120.64 283.346 1200.64 281.639C1280.64 279.719 1360.43 267.773 1440.43 254.546C1520.43 241.319 1600.64 227.239 1680.64 221.479C1760.64 215.719 1840.43 218.706 1880.11 219.986L1920 221.479V381.479H1880.11C1840.43 381.479 1760.64 381.479 1680.64 381.479C1600.64 381.479 1520.43 381.479 1440.43 381.479C1360.43 381.479 1280.64 381.479 1200.64 381.479C1120.64 381.479 1040.43 381.479 960.427 381.479C880.427 381.479 800.64 381.479 720.64 381.479C640.64 381.479 560.427 381.479 480.427 381.479C400.427 381.479 320.64 381.479 240.64 381.479C160.64 381.479 80.4267 381.479 40.1067 381.479H0V227.879Z" fill="#B6C9FF"/>
</g>
<defs>
<clipPath id="clip0_3359_4421">
<rect width="1920" height="379.013" fill="white"/>
</clipPath>
</defs>
</svg>
